<?xml version="1.0" encoding="UTF-8" standalone="no"?>
<svg
   xmlns:dc="http://purl.org/dc/elements/1.1/"
   xmlns:cc="http://creativecommons.org/ns#"
   xmlns:rdf="http://www.w3.org/1999/02/22-rdf-syntax-ns#"
   xmlns:svg="http://www.w3.org/2000/svg"
   xmlns="http://www.w3.org/2000/svg"
   xmlns:sodipodi="http://sodipodi.sourceforge.net/DTD/sodipodi-0.dtd"
   xmlns:inkscape="http://www.inkscape.org/namespaces/inkscape"
   width="16"
   height="16"
   viewBox="0 0 4.2333333 4.2333333"
   version="1.1"
   id="svg1431"
   inkscape:version="1.0.2 (e86c870879, 2021-01-15, custom)"
   sodipodi:docname="carBookingIcon.svg">
  <defs
     id="defs1425" />
  <sodipodi:namedview
     id="base"
     pagecolor="#ffffff"
     bordercolor="#666666"
     borderopacity="1.0"
     inkscape:pageopacity="0.0"
     inkscape:pageshadow="2"
     inkscape:zoom="128"
     inkscape:cx="12.168792"
     inkscape:cy="9.6562256"
     inkscape:document-units="mm"
     inkscape:current-layer="layer1"
     inkscape:document-rotation="0"
     showgrid="true"
     units="px"
     inkscape:showpageshadow="false"
     inkscape:snap-grids="true"
     inkscape:snap-to-guides="false"
     inkscape:object-paths="true"
     inkscape:snap-nodes="false"
     inkscape:window-width="1920"
     inkscape:window-height="1017"
     inkscape:window-x="1358"
     inkscape:window-y="-8"
     inkscape:window-maximized="1">
    <inkscape:grid
       type="xygrid"
       id="grid1433" />
    <inkscape:grid
       type="xygrid"
       id="grid1437"
       empspacing="8"
       originx="0"
       spacingx="0"
       spacingy="0"
       dotted="false"
       snapvisiblegridlinesonly="true"
       visible="false"
       enabled="true"
       originy="0" />
  </sodipodi:namedview>
  <metadata
     id="metadata1428">
    <rdf:RDF>
      <cc:Work
         rdf:about="">
        <dc:format>image/svg+xml</dc:format>
        <dc:type
           rdf:resource="http://purl.org/dc/dcmitype/StillImage" />
        <dc:title></dc:title>
      </cc:Work>
    </rdf:RDF>
  </metadata>
  <g
     inkscape:label="Layer 1"
     inkscape:groupmode="layer"
     id="layer1">
    <rect
       style="fill:#1d366d;fill-opacity:1;stroke-width:0.264583"
       id="rect1523"
       width="4.2333331"
       height="4.2333331"
       x="0.00035464342"
       y="0.00050169515"
       ry="0.79159993" />
    <rect
       style="opacity:1;fill:#ffffff;fill-opacity:1;fill-rule:nonzero;stroke:none;stroke-width:0.279676"
       id="rect4073"
       width="0.43408203"
       height="0.45268553"
       x="1.2464355"
       y="2.1104655"
       ry="0.22634277" />
    <g
       style="fill:#ffffff;fill-opacity:1"
       id="g1521"
       transform="matrix(0.04127045,0,0,0.04642923,1.0583333,1.0583333)">
      <path
         d="M 45.3611,2.84935 C 45.0655,2.0134 44.5173,1.29006 43.7924,0.779549 43.0675,0.269033 42.2017,-0.00338627 41.3151,3.17749e-5 H 9.9726 C 9.08595,-0.00338627 8.22019,0.269033 7.49526,0.779549 6.77033,1.29006 6.22212,2.0134 5.92657,2.84935 L 0,19.9452 v 22.7945 c 0,0.7557 0.300195,1.4805 0.834545,2.0148 0.534345,0.5344 1.259085,0.8346 2.014765,0.8346 h 2.84932 c 0.75568,0 1.48042,-0.3002 2.01477,-0.8346 0.53435,-0.5343 0.83454,-1.2591 0.83454,-2.0148 v -2.8493 l 23.319108,-0.05756 C 22.63546,26.254862 34.756651,18.394254 51.323122,23.896377 L 51.2877,19.9452 Z M 9.9726,31.3425 c -0.84531,0 -1.67164,-0.2507 -2.37449,-0.7203 C 6.89526,30.1526 6.34745,29.4851 6.02396,28.7041 5.70048,27.9231 5.61584,27.0638 5.78075,26.2347 c 0.16491,-0.8291 0.57197,-1.5906 1.16969,-2.1883 0.59773,-0.5978 1.35928,-1.0048 2.18835,-1.1697 0.82907,-0.1649 1.68841,-0.0803 2.46941,0.2432 0.7809,0.3235 1.4484,0.8713 1.9181,1.5741 0.4696,0.7029 0.7203,1.5292 0.7203,2.3745 0,1.1335 -0.4503,2.2206 -1.2518,3.0222 -0.8016,0.8015 -1.8887,1.2518 -3.0222,1.2518 z M 5.69863,17.0959 9.9726,4.274 h 31.3425 l 4.2739,12.8219 z"
         fill="#1d366d"
         id="path1510"
         sodipodi:nodetypes="csccsccscsscscccccsssscsccscsccccc"
         style="fill:#ffffff;fill-opacity:1" />
    </g>
    <path
       style="fill:#ffffff;fill-opacity:1;fill-rule:nonzero;stroke:none;stroke-width:0.329307px;stroke-linecap:butt;stroke-linejoin:miter;stroke-opacity:1"
       d="m 2.7795558,3.1717249 c 0,0 -0.5270025,-0.5751394 -0.3467932,-0.8163024 C 2.563629,2.1802921 2.9984615,2.1773378 3.1301599,2.3519425 3.3124463,2.5936258 2.7795558,3.1717185 2.7795558,3.1717198 Z"
       id="path1530"
       sodipodi:nodetypes="caac" />
    <ellipse
       style="opacity:1;fill:#1d366d;fill-opacity:1;fill-rule:nonzero;stroke:none;stroke-width:0.141426"
       id="path4063"
       cx="2.776058"
       cy="3.1713827"
       rx="0.13642578"
       ry="0.0077514662" />
    <ellipse
       style="opacity:1;fill:#1d366d;fill-opacity:1;fill-rule:nonzero;stroke:none;stroke-width:0.212602"
       id="path4065"
       cx="2.7801919"
       cy="2.5249104"
       rx="0.13229166"
       ry="0.14366047" />
    <rect
       style="opacity:0;fill:#0000ff;fill-opacity:1;fill-rule:nonzero;stroke:none;stroke-width:0.264583"
       id="rect4069"
       width="0.46302083"
       height="0.47542316"
       x="1.2381673"
       y="2.0525877"
       ry="0.23151042" />
    <rect
       style="opacity:0;fill:#0000ff;fill-opacity:1;fill-rule:nonzero;stroke:none;stroke-width:0.264583"
       id="rect4071"
       width="0.47335613"
       height="0.46508789"
       x="1.2609049"
       y="2.0877278"
       ry="0.23254395" />
    <rect
       style="opacity:1;fill:#000000;fill-opacity:0;fill-rule:nonzero;stroke:none;stroke-width:0.264583"
       id="rect4075"
       width="0.010335286"
       height="0.028938802"
       x="1.9864421"
       y="3.4519856"
       ry="0.0051676431" />
    <ellipse
       style="opacity:1;fill:#1d366d;fill-opacity:1;fill-rule:nonzero;stroke:none;stroke-width:0.212602"
       id="ellipse4081"
       cx="1.4705712"
       cy="2.5132174"
       rx="0.13229166"
       ry="0.14366047" />
  </g>
</svg>
