<svg width="100" height="100" viewBox="0 0 100 100" fill="none" xmlns="http://www.w3.org/2000/svg">
<rect x="2" y="3" width="96" height="96" rx="22" fill="#1D366D"/>
<path d="M69.3611 30.8493C69.0655 30.0134 68.5173 29.2901 67.7924 28.7795C67.0675 28.269 66.2017 27.9966 65.3151 28H33.9726C33.086 27.9966 32.2202 28.269 31.4953 28.7795C30.7703 29.2901 30.2221 30.0134 29.9266 30.8493L24 47.9452V70.7397C24 71.4954 24.3002 72.2202 24.8345 72.7545C25.3689 73.2889 26.0936 73.5891 26.8493 73.5891H29.6986C30.4543 73.5891 31.179 73.2889 31.7134 72.7545C32.2477 72.2202 32.5479 71.4954 32.5479 70.7397V67.8904H46.7945C46.7945 62.6006 48.8959 57.5275 52.6363 53.787C56.3768 50.0466 61.4499 47.9452 66.7397 47.9452C69.6992 47.9337 72.6224 48.5963 75.2877 49.8828V47.9452L69.3611 30.8493ZM33.9726 59.3425C33.1273 59.3425 32.301 59.0918 31.5981 58.6222C30.8953 58.1526 30.3475 57.4851 30.024 56.7041C29.7005 55.9231 29.6158 55.0638 29.7808 54.2347C29.9457 53.4056 30.3527 52.6441 30.9504 52.0464C31.5482 51.4486 32.3097 51.0416 33.1388 50.8767C33.9679 50.7118 34.8272 50.7964 35.6082 51.1199C36.3891 51.4434 37.0566 51.9912 37.5263 52.694C37.9959 53.3969 38.2466 54.2232 38.2466 55.0685C38.2466 56.202 37.7963 57.2891 36.9948 58.0907C36.1932 58.8922 35.1061 59.3425 33.9726 59.3425ZM29.6986 45.0959L33.9726 32.274H65.3151L69.589 45.0959H29.6986Z" fill="white"/>
<path d="M67.1849 63.8836H68.6541V66.6457L71.044 68.0267L70.3094 69.3L67.1849 67.4978V63.8836ZM71.1027 58.9863H57.3904V69.7603H61.9645C61.5433 68.869 61.3082 67.87 61.3082 66.822C61.3082 65.0036 62.0306 63.2597 63.3164 61.9739C64.6021 60.6881 66.346 59.9658 68.1644 59.9658C69.2124 59.9658 70.2114 60.2009 71.1027 60.622V58.9863ZM57.3904 71.7192C56.8709 71.7192 56.3726 71.5128 56.0053 71.1455C55.6379 70.7781 55.4315 70.2799 55.4315 69.7603V56.048C55.4315 54.9608 56.3032 54.0891 57.3904 54.0891H58.3699V52.1302H60.3288V54.0891H68.1644V52.1302H70.1233V54.0891H71.1027C71.6223 54.0891 72.1205 54.2955 72.4879 54.6628C72.8553 55.0302 73.0616 55.5285 73.0616 56.048V62.0226C74.2762 63.2568 75.0205 64.9512 75.0205 66.822C75.0205 68.6403 74.2982 70.3842 73.0124 71.67C71.7266 72.9558 69.9828 73.6781 68.1644 73.6781C66.2936 73.6781 64.5992 72.9337 63.3651 71.7192H57.3904ZM68.1644 62.0716C66.9045 62.0716 65.6963 62.5721 64.8054 63.463C63.9145 64.3538 63.414 65.5621 63.414 66.822C63.414 69.4469 65.5395 71.5723 68.1644 71.5723C68.7882 71.5723 69.4059 71.4494 69.9823 71.2107C70.5586 70.972 71.0823 70.6221 71.5234 70.181C71.9645 69.7399 72.3144 69.2162 72.5531 68.6398C72.7919 68.0635 72.9147 67.4458 72.9147 66.822C72.9147 64.197 70.7893 62.0716 68.1644 62.0716Z" fill="white"/>
</svg>
