<svg width="720" height="443" viewBox="0 0 720 443" fill="none" xmlns="http://www.w3.org/2000/svg">
<path d="M686.239 161.228C687.525 162.651 688.512 164.319 689.139 166.132C689.767 167.945 690.023 169.865 689.893 171.779C689.606 175.611 688.442 179.325 686.491 182.635C682.922 189.123 676.245 194.393 669.84 198.12C666.166 190.771 668.434 181.501 669.84 176.881C672.119 169.532 680.686 157.742 686.197 161.228" fill="#D9D9D9"/>
<path d="M671.888 212.083C672.296 209.978 673.255 208.019 674.665 206.404C676.076 204.788 677.888 203.575 679.919 202.887C681.957 202.228 684.106 201.982 686.24 202.163C688.374 202.343 690.451 202.946 692.35 203.936C694.113 204.818 695.856 206.162 696.287 208.136C696.425 209.051 696.32 209.986 695.98 210.847C695.641 211.708 695.08 212.464 694.355 213.039C692.884 214.174 691.137 214.899 689.294 215.138C682.995 216.188 676.812 216.104 671.888 212.115" fill="#D9D9D9"/>
<path d="M655.972 229.921C656.193 229.462 656.453 229.023 656.749 228.608L658.996 225.123C660.928 222.225 663.594 218.036 667.857 214.624C671.426 211.667 675.721 209.716 680.297 208.976C681.688 208.772 683.098 208.736 684.497 208.871C684.874 208.901 685.249 208.954 685.62 209.028C685.883 209.028 686.009 209.102 686.009 209.123C684.13 209.01 682.245 209.087 680.381 209.354C675.892 210.21 671.695 212.194 668.182 215.117C663.983 218.425 661.316 222.53 659.311 225.375C658.313 226.813 657.505 227.978 656.917 228.766C656.641 229.181 656.324 229.568 655.972 229.921Z" fill="#595959"/>
<path d="M680.507 170.813C680.462 171.032 680.398 171.246 680.318 171.454L679.709 173.249C679.163 174.813 678.344 177.049 677.315 179.811C675.216 185.333 672.287 192.923 668.833 201.228C665.378 209.532 662.082 216.976 659.615 222.351C658.386 225.028 657.368 227.18 656.654 228.65C656.308 229.343 656.024 229.91 655.814 230.351C655.724 230.553 655.615 230.747 655.489 230.928C655.539 230.714 655.613 230.507 655.709 230.309C655.909 229.858 656.15 229.259 656.465 228.556L659.268 222.173C661.641 216.776 664.885 209.312 668.339 201.007C671.793 192.703 674.806 185.144 676.958 179.653L679.51 173.154C679.804 172.441 680.035 171.853 680.224 171.401C680.296 171.195 680.391 170.998 680.507 170.813Z" fill="#595959"/>
<path d="M660.277 212.157C661.283 207.747 661.223 203.161 660.102 198.779C658.981 194.396 656.831 190.345 653.83 186.96C652.298 185.249 650.04 183.632 647.878 184.409C645.715 185.186 645.022 187.884 644.98 190.183C644.975 194.982 646.39 199.675 649.046 203.671C651.703 207.667 655.482 210.788 659.909 212.64" fill="#D9D9D9"/>
<path d="M652.161 193.816C652.532 194.127 652.867 194.479 653.158 194.866C653.538 195.271 653.889 195.702 654.208 196.157C654.597 196.692 655.08 197.259 655.51 197.973C656.009 198.726 656.468 199.504 656.885 200.304C657.383 201.212 657.829 202.148 658.219 203.107C659.115 205.316 659.756 207.619 660.129 209.973C660.466 212.331 660.53 214.719 660.318 217.091C660.223 218.125 660.065 219.152 659.846 220.167C659.672 221.055 659.444 221.932 659.164 222.792C658.953 223.505 658.704 224.206 658.418 224.892C658.223 225.418 657.991 225.93 657.725 226.425C657.54 226.866 657.312 227.288 657.043 227.684C656.927 227.684 657.904 225.826 658.807 222.677C659.053 221.824 659.253 220.958 659.405 220.083C659.6 219.08 659.74 218.067 659.825 217.049C660.009 214.714 659.935 212.366 659.605 210.047C659.231 207.738 658.615 205.476 657.767 203.296C657.347 202.299 656.959 201.354 656.497 200.503C656.1 199.705 655.662 198.927 655.185 198.173C653.421 195.38 652.014 193.889 652.161 193.816Z" fill="#595959"/>
<path d="M33.8548 95.7901C33.8548 95.7901 24.1961 98.9397 33.5609 119.622C42.9257 140.304 49.6133 150.677 49.6133 150.677C49.6133 150.677 51.2196 155.454 47.2301 156C43.2406 156.546 34.6317 154.75 32.616 159.506C30.5163 164.43 33.9808 169.333 41.1724 173.837C48.3639 178.341 63.7654 188.766 65.1513 189.711C66.5371 190.656 67.8179 192.86 65.1513 193.7C62.4846 194.54 42.8207 195.632 43.9125 204.934C45.0044 214.236 67.1145 223.516 69.4872 224.566C71.8599 225.616 72.4163 226.666 72.1538 228.01C71.8914 229.354 65.2457 229.06 59.6605 229.648C54.0752 230.236 47.7025 231.81 48.7839 237.123C49.8653 242.435 62.6631 254.099 94.8519 258.781L109.907 259.978L118.705 247.621C135.943 220.041 135.314 202.74 131.965 198.477C128.615 194.215 123.251 198.036 119.23 201.942C115.209 205.847 111.083 211.076 109.907 210.414C108.731 209.753 108.259 208.661 108.994 206.152C109.728 203.642 116.983 180.808 110.589 173.963C104.196 167.118 90.6419 181.396 88.2902 182.908C85.9385 184.42 85.0881 181.963 85.2561 180.315C85.4241 178.666 87.4188 160.157 88.6367 151.758C89.8545 143.359 88.3322 137.585 83.2404 136.01C78.327 134.457 74.1066 142.205 71.1145 144.892C68.1224 147.58 65.5187 143.265 65.5187 143.265C65.5187 143.265 61.9387 131.485 52.1959 110.95C42.4532 90.4148 33.6449 95.9476 33.6449 95.9476" fill="#D9D9D9"/>
<path d="M110.537 263.537C103.44 248.419 91.2825 221.354 80.7209 198.173C70.1593 174.992 60.5845 154.015 53.5609 138.876L45.2355 120.945L42.9783 116.073L42.4009 114.793C42.3216 114.643 42.2515 114.489 42.1909 114.331C42.1909 114.331 42.2749 114.467 42.4219 114.751L43.0413 116.01C43.5767 117.134 44.3641 118.761 45.3825 120.85C47.4087 125.05 50.2959 131.149 53.8444 138.698C60.9415 153.806 70.5687 174.761 81.1408 197.942C91.7129 221.123 103.818 248.251 110.841 263.411" fill="#595959"/>
<path d="M44.6055 162.498C44.9657 162.58 45.3172 162.696 45.6553 162.845C46.3062 163.086 47.2511 163.475 48.406 163.958C50.7157 164.934 53.8758 166.362 57.3403 168L66.1801 172.199L68.8678 173.459C69.2052 173.595 69.5287 173.764 69.8337 173.963C69.471 173.895 69.1183 173.782 68.7838 173.627C68.1224 173.385 67.188 172.997 66.0332 172.504C63.7235 171.454 60.5844 170.036 57.1303 168.399L48.259 164.199L45.5713 162.95C45.2334 162.836 44.9094 162.685 44.6055 162.498Z" fill="#595959"/>
<path d="M70.894 173.123C70.7785 173.123 73.4347 166.425 76.8257 158.288C80.2168 150.152 83.1249 143.59 83.1879 143.59C83.2509 143.59 80.6577 150.288 77.2562 158.435C73.8546 166.582 71.02 173.123 70.894 173.123Z" fill="#595959"/>
<path d="M85.5081 209.396C85.6963 209.076 85.9181 208.777 86.1695 208.503C86.6734 207.863 87.3138 207.076 88.0697 206.141C89.6655 204.146 91.8702 201.375 94.1904 198.236C96.5106 195.097 98.5159 192.199 99.9542 190.078L101.655 187.569C101.848 187.252 102.069 186.953 102.316 186.677C102.19 187.027 102.017 187.359 101.802 187.664C101.445 188.294 100.91 189.175 100.227 190.257C98.8623 192.43 96.8991 195.38 94.5579 198.519C92.2167 201.658 89.991 204.409 88.3217 206.351C87.4818 207.317 86.7994 208.094 86.3059 208.619C86.0727 208.909 85.8047 209.17 85.5081 209.396Z" fill="#595959"/>
<path d="M59.6184 205.081C59.9696 205.058 60.3223 205.079 60.6683 205.144L63.4504 205.49C65.7916 205.816 69.0252 206.288 72.5947 206.834C76.1642 207.38 79.3873 207.884 81.718 208.304L84.4792 208.808C84.8202 208.847 85.1552 208.928 85.4765 209.049C85.1253 209.072 84.7726 209.051 84.4267 208.986L81.655 208.64C79.3033 208.314 76.0698 207.842 72.5002 207.296C68.9307 206.75 65.7076 206.246 63.3769 205.826L60.6263 205.322C60.2824 205.279 59.9443 205.199 59.6184 205.081Z" fill="#595959"/>
<path d="M68.4375 238.792C68.877 238.781 69.3165 238.812 69.7498 238.886L73.3194 239.327C76.322 239.716 80.4689 240.283 85.0463 240.944C89.6237 241.606 93.7707 242.225 96.7628 242.708L100.311 243.285C100.749 243.345 101.18 243.44 101.603 243.569C101.16 243.58 100.717 243.548 100.28 243.474L96.7208 243.033C93.7182 242.645 89.5607 242.067 84.9833 241.406C80.4059 240.745 76.259 240.125 73.2669 239.653L69.7288 239.065C69.2908 239.014 68.8585 238.923 68.4375 238.792Z" fill="#595959"/>
<path d="M100.847 243.233C101.081 242.821 101.352 242.431 101.655 242.067C102.243 241.27 103.02 240.241 103.954 238.991C105.897 236.388 108.563 232.787 111.398 228.724C114.232 224.661 116.71 220.923 118.474 218.225L120.574 215.002C120.811 214.596 121.082 214.21 121.382 213.847C121.198 214.282 120.977 214.7 120.721 215.096C120.269 215.884 119.597 217.018 118.747 218.393C117.046 221.165 114.61 224.944 111.765 229.007C108.92 233.07 106.222 236.661 104.206 239.212C103.156 240.482 102.369 241.511 101.781 242.204C101.504 242.576 101.191 242.921 100.847 243.233Z" fill="#595959"/>
<path d="M346.094 219.999C319.197 206.467 309.076 175.58 305.927 146.96C305.402 142.184 304.152 137.249 305.811 132.756C307.47 128.262 312.331 124.64 316.877 126.037C320.646 127.181 322.777 131.065 325.276 134.173C328.568 138.325 332.968 141.459 337.968 143.212C341.223 144.346 345.107 144.766 347.858 142.687C351.627 139.832 351.291 134.1 350.577 129.375C349.247 120.563 347.918 111.759 346.588 102.961C345.874 98.2363 345.17 93.4174 345.989 88.714C346.808 84.0106 349.454 79.3807 353.769 77.47C358.084 75.5592 364.026 77.344 365.643 81.8374C366.315 83.7062 366.21 85.7639 366.63 87.7062C367.05 89.6484 368.267 91.6851 370.21 91.9686C372.152 92.2521 373.884 90.6353 375.092 89.0395C379.291 83.5697 381.706 76.9346 383.921 70.3729C386.136 63.8113 388.225 57.1132 391.9 51.2654C395.574 45.4177 401.107 40.4099 407.816 39.045C414.524 37.6802 422.356 40.8193 425.023 47.2235C427.69 53.6276 424.792 60.9662 421.338 66.9714C416.238 75.8909 409.873 84.0244 402.44 91.1182C401.097 92.3885 399.648 93.7639 399.291 95.6011C398.724 98.8977 402.157 101.596 405.422 102.184C409.118 102.845 412.887 101.932 416.635 101.827C420.383 101.722 424.614 102.782 426.514 106.026C429.149 110.583 425.842 116.231 422.314 120.126C415.312 127.922 407.02 134.453 397.8 139.433C394.504 141.207 391.007 142.855 388.551 145.732C386.094 148.609 385.023 153.081 387.196 156.157C389.37 159.233 393.874 159.685 397.422 158.477C400.971 157.27 403.942 154.824 407.228 153.018C413.37 149.627 421.821 148.819 426.797 153.869C430.062 157.165 431.049 162.267 430.304 166.876C429.558 171.485 427.301 175.664 424.824 179.59C416.173 193.312 404.267 205.081 389.947 212.482C375.627 219.884 361.874 223.317 346.105 220.01" fill="#B2B2B2"/>
<path d="M350.85 201.081C353.34 184.885 356.755 168.845 361.076 153.039L364.415 140.577C365.517 136.493 366.609 132.441 367.921 128.546C370.455 121.067 373.403 113.735 376.75 106.583C379.9 99.7376 383.123 93.3544 386.199 87.4017C389.275 81.449 392.267 75.9687 395.186 71.0868C399.765 63.36 404.95 56.0089 410.693 49.1027C412.719 46.6565 414.357 44.8088 415.48 43.5804L416.761 42.1841C416.901 42.0166 417.055 41.862 417.223 41.7222C417.113 41.9076 416.982 42.0801 416.834 42.2366L415.606 43.6959C414.556 44.9663 412.939 46.8455 410.955 49.3232C405.331 56.2821 400.236 63.6517 395.711 71.3703C392.824 76.2627 389.884 81.7534 386.84 87.7062C383.795 93.6589 380.593 100.053 377.475 106.887C374.15 114.035 371.22 121.36 368.698 128.829C367.396 132.714 366.315 136.724 365.212 140.819C364.11 144.913 363.018 149.071 361.895 153.27C357.576 169.044 354.145 185.048 351.617 201.207" fill="#595959"/>
<path d="M368.163 128.483C367.84 127.862 367.586 127.207 367.407 126.53C366.976 125.26 366.357 123.38 365.727 121.102C364.383 116.483 362.735 110.058 360.95 102.961C359.165 95.8636 357.423 89.4699 356.016 84.8925C355.312 82.6038 354.724 80.7561 354.304 79.4857C354.045 78.8357 353.855 78.16 353.738 77.47C354.103 78.0639 354.399 78.698 354.619 79.3598C355.144 80.5986 355.816 82.4253 356.604 84.7036C358.168 89.239 360.005 95.6326 361.8 102.74L366.325 120.934C366.878 123.118 367.351 124.952 367.743 126.436C367.96 127.1 368.101 127.787 368.163 128.483Z" fill="#595959"/>
<path d="M427.301 108.336C426.529 108.624 425.731 108.838 424.918 108.976C423.385 109.344 421.149 109.858 418.42 110.583C412.939 111.989 405.433 114.194 397.265 116.987C389.097 119.779 381.811 122.667 376.604 124.882C373.989 125.932 371.9 126.919 370.451 127.559C369.72 127.939 368.953 128.249 368.163 128.483C368.822 128.005 369.525 127.59 370.262 127.244C371.669 126.509 373.727 125.48 376.31 124.304C381.475 121.932 388.75 118.971 396.939 116.147C403.925 113.724 411.032 111.664 418.231 109.974C420.992 109.323 423.249 108.924 424.813 108.64C425.631 108.459 426.464 108.357 427.301 108.336Z" fill="#595959"/>
<path d="M351.449 199.852C351.244 199.653 351.068 199.427 350.924 199.181C350.556 198.624 350.116 197.942 349.57 197.081C348.394 195.296 346.766 192.671 344.803 189.406C340.866 182.866 335.711 173.658 330.158 163.422C324.604 153.186 319.533 143.989 315.732 137.428L311.218 129.617L310 127.517C309.841 127.275 309.714 127.014 309.622 126.74C309.829 126.941 310.006 127.171 310.147 127.422L311.502 129.522C312.677 131.307 314.305 133.932 316.268 137.207C320.205 143.748 325.37 152.955 330.966 163.191C336.562 173.427 341.58 182.656 345.381 189.27L349.895 197.091C350.388 197.942 350.787 198.656 351.113 199.191C351.25 199.398 351.363 199.62 351.449 199.852Z" fill="#595959"/>
<path d="M428.456 162.152C428.224 162.33 427.97 162.478 427.7 162.593L425.475 163.674L417.233 167.727C410.273 171.16 400.708 176 390.157 181.375C379.606 186.75 369.979 191.496 362.945 194.782C359.428 196.419 356.572 197.721 354.546 198.582L352.247 199.548C351.987 199.685 351.707 199.781 351.417 199.831C351.652 199.656 351.905 199.509 352.173 199.391L354.399 198.267L362.651 194.215C369.611 190.792 379.165 185.952 389.727 180.567C400.288 175.181 409.895 170.446 416.929 167.16C420.446 165.522 423.301 164.22 425.328 163.359L427.627 162.393C427.889 162.271 428.169 162.19 428.456 162.152Z" fill="#595959"/>
<path d="M562.104 90.8662C562.104 73.7325 544.109 62.8874 525.758 71.4648C521.61 73.4097 518.217 76.663 516.099 80.7246C511.49 89.6694 513.527 99.8741 517.716 108.357L531.994 144.546C532.444 145.7 533.231 146.692 534.254 147.391C535.277 148.09 536.487 148.464 537.726 148.464C538.965 148.464 540.175 148.09 541.198 147.391C542.22 146.692 543.008 145.7 543.458 144.546L557.463 108.157C562.303 97.0394 562.104 90.8662 562.104 90.8662ZM544.865 105.774C532.529 112.945 520.025 99.6851 526.786 86.6038C527.669 84.8586 529.031 83.4017 530.713 82.4043C543.049 75.2338 555.542 88.4935 548.781 101.575C547.903 103.319 546.544 104.776 544.865 105.774Z" fill="#B2B2B2"/>
<path d="M710.953 439.872C710.953 440.03 553.474 440.145 359.312 440.145C165.151 440.145 7.6084 440.03 7.6084 439.872C7.6084 439.715 165.025 439.599 359.312 439.599C553.6 439.599 710.953 439.725 710.953 439.872Z" fill="#263238"/>
<path d="M305.874 439.872L166.327 439.232C158.27 439.182 150.562 435.94 144.89 430.218C139.219 424.495 136.047 416.758 136.069 408.702L137.55 58.8559C137.597 50.7957 140.838 43.0831 146.564 37.4092C152.289 31.7354 160.03 28.5632 168.09 28.5884L307.638 29.2288C315.691 29.2788 323.396 32.5172 329.067 38.2351C334.737 43.953 337.912 51.6848 337.895 59.7378L336.415 409.584C336.373 417.647 333.134 425.365 327.408 431.044C321.683 436.722 313.938 439.897 305.874 439.872Z" fill="#455A64"/>
<path d="M307.439 41.3022L280.384 41.1762C278.602 41.2094 276.907 41.9474 275.669 43.2286C274.431 44.5098 273.752 46.2296 273.78 48.0108V52.9242C273.794 53.8061 273.634 54.6821 273.309 55.502C272.984 56.3219 272.5 57.0697 271.886 57.7026C271.272 58.3354 270.538 58.8409 269.729 59.1902C268.919 59.5394 268.048 59.7255 267.166 59.7378L214.421 59.4963C212.64 59.4441 210.953 58.6893 209.727 57.3969C208.502 56.1044 207.838 54.3794 207.88 52.5987V47.6854C207.911 45.9165 207.245 44.2064 206.025 42.9254C204.804 41.6443 203.129 40.8952 201.36 40.8403H191.849L168.174 40.6618C162.529 40.6339 157.104 42.8489 153.092 46.8198C149.08 50.7908 146.809 56.1926 146.778 61.8375L145.34 403.316C145.315 408.961 147.532 414.385 151.505 418.395C155.478 422.405 160.881 424.674 166.526 424.702L305.801 425.342C308.597 425.354 311.368 424.816 313.956 423.757C316.544 422.699 318.898 421.141 320.884 419.173C322.87 417.205 324.448 414.864 325.53 412.286C326.611 409.707 327.174 406.941 327.187 404.145L328.625 62.6774C328.637 59.8828 328.099 57.1131 327.041 54.5264C325.983 51.9398 324.426 49.5868 322.459 47.602C320.491 45.6171 318.152 44.0391 315.575 42.9582C312.998 41.8773 310.233 41.3146 307.439 41.3022Z" fill="#EDEDED"/>
<path d="M146.61 102.835H169.434L189.801 123.213L168.625 144.388L146.851 122.604L146.61 102.835Z" fill="#D9D9D9"/>
<path d="M194.452 114.268L183.009 102.835H208.751L194.452 114.268Z" fill="#D9D9D9"/>
<path d="M204.458 123.611L224.499 103.57H294.525C294.525 103.57 305.244 151.443 263.029 182.183L204.458 123.611Z" fill="#D9D9D9"/>
<path d="M195.88 129.995L174.442 151.443L233.77 210.771L255.208 188.608L195.88 129.995Z" fill="#D9D9D9"/>
<path d="M146.347 163.601L159.786 149.659L146.61 136.483L146.347 163.601Z" fill="#D9D9D9"/>
<path d="M167.828 157.879L147.188 178.519V207.202L189.802 250.802L225.906 217.207L167.828 157.879Z" fill="#D9D9D9"/>
<path d="M271.061 188.199C271.061 188.199 315.281 155.779 300.982 103.57H328.478L328.142 250.928L271.061 188.199Z" fill="#D9D9D9"/>
<path d="M262.746 196.703L241.371 219.023L306.924 284.587L326.977 263.338L262.746 196.703Z" fill="#D9D9D9"/>
<path d="M232.436 225.133L198.83 258.498L266.043 325.238L299.586 292.807L232.436 225.133Z" fill="#D9D9D9"/>
<path d="M214.82 392.303L266.2 339.054L315.071 388.87L214.82 392.303Z" fill="#D9D9D9"/>
<path d="M274.21 332.177L327.753 279.159C327.753 281.511 327.292 389.09 327.292 389.09L274.21 332.177Z" fill="#D9D9D9"/>
<path d="M228.405 302.403L258.757 332.755L198.83 394.591L171.146 361.384L228.405 302.403Z" fill="#D9D9D9"/>
<path d="M146.4 365.689C149.266 365.405 222.662 296.671 222.662 296.671L146.4 217.648V365.689Z" fill="#D9D9D9"/>
<path d="M145.34 381.353L163.009 365.689L187.481 394.591H145.34V383.536" fill="#D9D9D9"/>
<path d="M168.174 82.0264C166.307 80.6486 164.552 79.125 162.925 77.47C162.925 76.6721 162.925 77.2495 162.925 77.071L162.999 77.008L163.125 76.8926L163.387 76.6511L163.891 76.1787L164.846 75.2968L166.495 73.827C166.994 73.3169 167.559 72.8756 168.174 72.5146C167.8 73.0855 167.348 73.6014 166.831 74.0474L165.256 75.6012L164.321 76.5041L163.817 76.987L163.565 77.2285L163.429 77.344L163.366 77.407V77.008C165.097 78.5531 166.705 80.231 168.174 82.0264Z" fill="#263238"/>
<path d="M313.318 74.0159C313.32 74.2431 313.254 74.4658 313.129 74.6556C313.005 74.8454 312.826 74.9937 312.616 75.0816C312.407 75.1695 312.176 75.1931 311.953 75.1492C311.73 75.1054 311.525 74.9962 311.364 74.8355C311.204 74.6749 311.095 74.47 311.051 74.2471C311.007 74.0241 311.031 73.7931 311.118 73.5836C311.206 73.3741 311.355 73.1955 311.544 73.0705C311.734 72.9456 311.957 72.88 312.184 72.8821C312.485 72.8821 312.773 73.0015 312.986 73.2142C313.198 73.4268 313.318 73.7152 313.318 74.0159Z" fill="#263238"/>
<path d="M312.992 77.134C313.153 77.294 313.262 77.4979 313.306 77.7199C313.35 77.942 313.328 78.1722 313.241 78.3814C313.155 78.5906 313.008 78.7695 312.82 78.8953C312.632 79.0212 312.41 79.0883 312.184 79.0883C311.957 79.0883 311.736 79.0212 311.548 78.8953C311.36 78.7695 311.213 78.5906 311.126 78.3814C311.04 78.1722 311.017 77.942 311.062 77.7199C311.106 77.4979 311.215 77.294 311.375 77.134C311.591 76.9224 311.882 76.8039 312.184 76.8039C312.486 76.8039 312.776 76.9224 312.992 77.134Z" fill="#263238"/>
<path d="M313.318 81.8584C313.291 82.1416 313.159 82.4046 312.948 82.5959C312.738 82.7873 312.463 82.8933 312.179 82.8933C311.894 82.8933 311.62 82.7873 311.409 82.5959C311.199 82.4046 311.067 82.1416 311.04 81.8584C311.024 81.6996 311.043 81.5394 311.093 81.388C311.143 81.2367 311.225 81.0975 311.332 80.9794C311.439 80.8614 311.57 80.767 311.716 80.7025C311.862 80.6379 312.019 80.6046 312.179 80.6046C312.338 80.6046 312.496 80.6379 312.642 80.7025C312.788 80.767 312.919 80.8614 313.026 80.9794C313.133 81.0975 313.214 81.2367 313.265 81.388C313.315 81.5394 313.333 81.6996 313.318 81.8584Z" fill="#263238"/>
<path d="M264.121 78.6668H215.009V82.7613H264.121V78.6668Z" fill="#263238"/>
<path d="M258.777 152.126C258.777 132.997 238.683 120.882 218.19 130.467C213.553 132.633 209.759 136.268 207.397 140.808C202.242 150.792 204.52 162.194 209.192 171.664L225.15 212.094C225.654 213.382 226.535 214.489 227.677 215.268C228.82 216.048 230.171 216.466 231.554 216.466C232.938 216.466 234.289 216.048 235.431 215.268C236.574 214.489 237.455 213.382 237.959 212.094L253.591 171.454C259.008 159.065 258.777 152.126 258.777 152.126ZM239.565 168.819C225.791 176.829 211.827 162.026 219.376 147.412C220.371 145.485 221.888 143.876 223.754 142.771C237.539 134.761 251.502 149.564 243.943 164.178C242.952 166.108 241.434 167.718 239.565 168.819Z" fill="#1D366D"/>
<path d="M676.381 298.183H93.8962V383.652H676.381V298.183Z" fill="#1D366D"/>
<g opacity="0.5">
<path opacity="0.5" d="M676.381 298.183H93.8962V383.652H676.381V298.183Z" fill="black"/>
</g>
<path d="M175.947 439.111C206.897 437.028 230.299 410.249 228.216 379.299C226.133 348.348 199.354 324.946 168.404 327.029C137.453 329.112 114.052 355.891 116.134 386.842C118.217 417.792 144.996 441.194 175.947 439.111Z" fill="#263238"/>
<path d="M116.017 382.119C116.017 382.172 116.017 382.224 116.017 382.266C115.91 389.642 117.257 396.967 119.981 403.822C122.705 410.678 126.753 416.93 131.893 422.221C137.033 427.512 143.165 431.739 149.939 434.661C156.712 437.582 163.995 439.141 171.371 439.247C178.747 439.354 186.072 438.007 192.927 435.283C199.783 432.559 206.035 428.512 211.326 423.372C216.617 418.232 220.844 412.1 223.766 405.326C226.687 398.552 228.246 391.269 228.352 383.893C228.352 383.841 228.352 383.788 228.352 383.746L116.017 382.119Z" fill="#263238"/>
<path d="M132.741 382.508C132.626 390.307 134.826 397.965 139.063 404.514C143.301 411.062 149.385 416.207 156.547 419.298C163.709 422.388 171.626 423.285 179.298 421.875C186.969 420.465 194.051 416.811 199.645 411.377C205.24 405.942 209.098 398.97 210.73 391.342C212.362 383.715 211.695 375.775 208.814 368.526C205.933 361.278 200.967 355.047 194.544 350.621C188.121 346.195 180.53 343.774 172.731 343.663C162.277 343.514 152.193 347.522 144.694 354.807C137.196 362.091 132.896 372.054 132.741 382.508Z" fill="#EDEDED"/>
<path d="M172.731 343.652C162.277 343.501 152.191 347.508 144.691 354.793C137.192 362.078 132.893 372.043 132.741 382.497L211.597 383.641C211.745 373.185 207.734 363.097 200.445 355.598C193.157 348.098 183.187 343.801 172.731 343.652Z" fill="#595959"/>
<path d="M148.153 382.728C148.083 387.479 149.424 392.144 152.005 396.133C154.587 400.122 158.293 403.256 162.656 405.138C167.019 407.021 171.842 407.567 176.515 406.707C181.189 405.848 185.502 403.622 188.91 400.311C192.318 397 194.667 392.753 195.661 388.106C196.655 383.46 196.248 378.623 194.493 374.208C192.737 369.792 189.712 365.997 185.799 363.301C181.886 360.606 177.261 359.131 172.51 359.064C169.357 359.018 166.226 359.594 163.295 360.759C160.364 361.923 157.692 363.653 155.43 365.851C153.168 368.048 151.361 370.67 150.113 373.566C148.864 376.461 148.198 379.575 148.153 382.728Z" fill="#263238"/>
<path d="M604.945 439.092C635.913 437.295 659.562 410.734 657.765 379.765C655.969 348.797 629.408 325.148 598.439 326.945C567.471 328.741 543.822 355.302 545.619 386.271C547.415 417.239 573.976 440.888 604.945 439.092Z" fill="#263238"/>
<path d="M545.516 382.119C545.516 382.172 545.516 382.224 545.516 382.266C545.409 389.642 546.756 396.967 549.48 403.822C552.204 410.678 556.251 416.93 561.391 422.221C566.532 427.512 572.663 431.739 579.437 434.661C586.211 437.582 593.494 439.141 600.87 439.247C608.246 439.354 615.571 438.007 622.426 435.283C629.282 432.559 635.533 428.512 640.825 423.372C646.116 418.232 650.343 412.1 653.264 405.326C656.185 398.552 657.744 391.269 657.851 383.893C657.851 383.841 657.851 383.788 657.851 383.746L545.516 382.119Z" fill="#263238"/>
<path d="M562.24 382.508C562.125 390.307 564.325 397.965 568.562 404.514C572.8 411.062 578.884 416.207 586.046 419.298C593.208 422.388 601.125 423.285 608.797 421.875C616.468 420.465 623.549 416.811 629.144 411.377C634.739 405.942 638.597 398.97 640.229 391.342C641.861 383.715 641.194 375.775 638.313 368.526C635.432 361.278 630.466 355.047 624.043 350.621C617.62 346.195 610.029 343.774 602.229 343.663C591.776 343.514 581.692 347.522 574.193 354.807C566.694 362.091 562.395 372.054 562.24 382.508Z" fill="#EDEDED"/>
<path d="M602.23 343.652C591.776 343.501 581.69 347.508 574.19 354.793C566.691 362.078 562.392 372.043 562.24 382.497L641.095 383.641C641.244 373.185 637.233 363.097 629.944 355.598C622.655 348.098 612.686 343.801 602.23 343.652Z" fill="#595959"/>
<path d="M577.621 382.728C577.551 387.479 578.891 392.144 581.473 396.133C584.054 400.122 587.761 403.256 592.124 405.138C596.487 407.021 601.31 407.567 605.983 406.707C610.656 405.848 614.969 403.622 618.377 400.311C621.785 397 624.135 392.753 625.129 388.106C626.122 383.46 625.716 378.623 623.96 374.208C622.205 369.792 619.179 365.997 615.266 363.301C611.353 360.606 606.729 359.131 601.978 359.064C598.824 359.018 595.693 359.594 592.762 360.759C589.832 361.923 587.159 363.653 584.898 365.851C582.636 368.048 580.829 370.67 579.58 373.566C578.332 376.461 577.666 379.575 577.621 382.728Z" fill="#263238"/>
<path d="M245.791 250.099C245.791 250.099 163.083 256.199 132.406 263.075C110.799 267.915 69.1408 276.282 69.6448 302.487L72.9518 321.28C72.9518 321.28 57.5084 328.335 57.5084 346.35C57.5084 364.366 53.7393 392.292 89.8126 393.416C95.7548 393.594 107.041 393.416 107.041 393.416C107.041 393.416 100.122 316.587 170.694 314.34C242.494 312.051 237.728 392.712 237.728 392.712H537.39C537.39 392.712 525.086 314.13 602.377 313.973C679.667 313.815 667.909 393.227 667.909 393.227C667.909 393.227 696.339 395.683 709.567 371.788C722.796 347.894 719.363 330.844 719.363 330.844L718.922 315.736C718.838 313.257 717.816 310.902 716.061 309.148C714.307 307.394 711.952 306.371 709.473 306.288C709.473 306.288 714.638 268.262 706.712 261.679C698.785 255.096 655.353 215.38 655.353 215.38L657.452 214.089C658.231 213.597 658.854 212.894 659.249 212.062C659.644 211.231 659.796 210.304 659.686 209.39C659.576 208.475 659.209 207.611 658.628 206.897C658.047 206.182 657.275 205.647 656.402 205.354C639.909 199.684 607.3 188.461 599.636 185.784C598.489 185.376 597.292 185.122 596.077 185.028C591.5 184.682 578.545 183.863 554.765 183.611C525.799 183.296 410.798 183.611 410.798 183.611C410.798 183.611 371.218 186.866 349.171 196.566C326.053 206.771 245.791 250.099 245.791 250.099Z" fill="#1D366D"/>
<g opacity="0.4">
<path opacity="0.4" d="M78.4843 344.251C75.4817 343.642 70.8833 343.589 68.5946 345.615C66.8939 347.127 66.4424 349.573 66.1904 351.831C65.7083 354.923 65.7794 358.076 66.4004 361.143C66.7171 362.675 67.3469 364.125 68.2502 365.402C69.1535 366.679 70.3108 367.756 71.6497 368.565C74.4004 370.056 78.1589 369.815 80.2901 367.516C82.2428 365.416 82.4633 362.266 82.3898 359.463C82.3163 355.411 82.6418 351.978 81.8964 347.999C81.732 347.154 81.3725 346.359 80.8465 345.678C80.585 345.271 80.233 344.929 79.8178 344.679C79.4026 344.43 78.9356 344.28 78.4528 344.24" fill="black"/>
</g>
<path d="M72.9728 321.28C81.7497 321.28 90.2641 320.797 99.0304 320.23C99.9854 320.272 100.926 319.986 101.697 319.421C102.05 318.983 102.312 318.478 102.469 317.938C102.626 317.397 102.674 316.831 102.61 316.272C102.61 311.568 102.421 306.214 98.852 303.148C96.6682 301.28 93.6761 300.692 90.81 300.429C83.6926 299.66 76.493 300.375 69.6658 302.529L72.9728 321.28Z" fill="#EDEDED"/>
<path d="M255.313 390.308C255.313 390.308 255.313 390.056 255.25 389.552C255.187 389.048 255.166 388.303 255.103 387.347C254.998 385.395 254.84 382.55 254.641 378.875C254.442 375.201 254.19 370.697 253.665 365.489C253.123 359.593 252.087 353.753 250.568 348.03C248.651 341.117 245.808 334.496 242.116 328.345C237.934 321.243 232.377 315.047 225.77 310.12C211.607 300.041 192.468 294.372 172.447 294.099C152.426 293.826 133.277 300.156 119.461 310.77C112.838 315.67 107.037 321.592 102.274 328.314C98.1162 334.15 94.7352 340.502 92.2168 347.211C90.1393 352.756 88.7125 358.523 87.9648 364.397C87.3794 368.827 87.2071 373.301 87.4504 377.762C87.6227 380.581 87.9733 383.386 88.5003 386.161C88.6682 387.095 88.8047 387.82 88.8887 388.324C88.9727 388.828 89.0042 389.069 89.0042 389.069C89.0042 389.069 88.9412 388.828 88.8362 388.345L88.3848 386.245C87.8134 383.475 87.4345 380.669 87.2509 377.846C86.9655 373.371 87.1061 368.878 87.6709 364.429C88.3944 358.525 89.8038 352.726 91.8703 347.148C94.3801 340.386 97.7612 333.98 101.928 328.093C106.701 321.317 112.528 315.348 119.188 310.413C133.067 299.747 152.258 293.353 172.437 293.616C192.615 293.878 211.786 299.6 226.064 309.773C232.71 314.749 238.296 321.003 242.494 328.167C246.183 334.365 249.008 341.037 250.893 347.999C252.403 353.745 253.419 359.611 253.927 365.531C254.421 370.781 254.641 375.253 254.809 378.928C254.977 382.602 255.092 385.458 255.176 387.41C255.176 388.366 255.239 389.101 255.26 389.615C255.281 390.13 255.313 390.308 255.313 390.308Z" fill="white"/>
<path d="M258.463 391.61V390.98L258.4 389.122C258.347 387.463 258.274 385.038 258.169 381.867C257.99 375.494 257.728 366.182 257.392 354.329C257.056 342.476 256.667 328.083 256.216 311.6C256.1 307.474 255.995 303.201 255.869 298.844C255.796 296.618 255.894 294.389 256.163 292.177L256.636 288.797L257.329 285.406C258.416 280.773 259.981 276.266 262.001 271.957C264.08 267.44 266.65 263.166 269.665 259.212L321.559 226.519L335.575 217.7C340.299 214.561 345.259 211.792 350.41 209.417C355.677 206.936 361.082 204.759 366.598 202.897C369.349 201.931 372.173 201.144 374.997 200.304C377.821 199.464 380.698 198.771 383.617 198.204C394.622 195.85 405.809 194.445 417.055 194.005C427.846 193.488 438.656 193.523 449.443 194.11H449.748L449.674 194.414L435.732 256.787C433.156 261.016 431.044 265.511 429.433 270.193C427.846 274.634 427.133 279.34 427.333 284.051C427.69 288.66 427.816 293.175 427.931 297.553C428.047 301.931 428.099 306.172 428.183 310.298C428.425 326.781 428.488 341.153 428.53 352.996C428.572 364.838 428.53 374.151 428.53 380.513C428.53 383.662 428.53 386.109 428.53 387.767C428.53 388.576 428.53 389.195 428.53 389.626C428.53 390.056 428.53 390.256 428.53 390.256C428.53 390.256 428.53 390.035 428.53 389.626C428.53 389.216 428.53 388.576 428.53 387.767C428.53 386.109 428.53 383.683 428.53 380.513C428.53 374.151 428.435 364.838 428.362 353.006C428.288 341.174 428.183 326.76 427.9 310.298C427.816 306.183 427.725 301.938 427.627 297.563C427.501 293.185 427.375 288.692 427.007 284.083C426.794 279.312 427.507 274.546 429.107 270.046C430.708 265.326 432.82 260.795 435.406 256.535V256.608C439.679 237.406 444.351 216.451 449.296 194.225L449.538 194.54C438.774 193.96 427.989 193.932 417.223 194.456C406.004 194.89 394.845 196.296 383.869 198.656C380.961 199.233 378.126 200.041 375.281 200.755C372.436 201.469 369.653 202.383 366.882 203.338C361.365 205.203 355.96 207.384 350.693 209.868C345.568 212.227 340.633 214.979 335.932 218.099L321.906 226.918L270.011 259.537V259.485C267.002 263.413 264.439 267.663 262.368 272.156C260.351 276.433 258.789 280.908 257.707 285.511C255.344 294.508 256.531 303.358 256.552 311.6L257.602 354.329C257.885 366.172 258.106 375.494 258.253 381.857C258.326 385.006 258.368 387.463 258.41 389.122C258.41 389.927 258.41 390.546 258.41 390.98C258.463 391.4 258.463 391.61 258.463 391.61Z" fill="#263238"/>
<path d="M449.065 195.842H449.558L450.997 195.79L456.571 195.653L477.243 195.254L546.933 194.057H547.07L547.154 194.162L556.917 206.12C566.807 218.267 576.235 229.816 584.802 240.314L587.951 244.199C588.971 245.501 589.847 246.909 590.565 248.398C591.866 251.161 592.573 254.165 592.64 257.218C592.707 260.27 592.132 263.303 590.954 266.12L587.804 273.469L578.167 295.768L575.521 301.815L574.818 303.39C574.66 303.736 574.566 303.915 574.566 303.915C574.566 303.915 574.629 303.726 574.765 303.369C574.902 303.012 575.143 302.456 575.416 301.773C576.014 300.366 576.865 298.309 577.967 295.684L587.416 273.322C589.222 268.576 592.403 263.579 592.182 257.49C592.135 254.395 591.419 251.347 590.083 248.556C589.379 247.106 588.52 245.736 587.521 244.472L584.371 240.587L556.455 206.425L546.702 194.467L546.912 194.572L477.212 195.622L456.54 195.863H450.965H449.537L449.065 195.842Z" fill="#263238"/>
<path d="M413.842 288.524C413.842 288.524 414.136 288.524 414.672 288.398C415.459 288.258 416.21 287.958 416.876 287.516C417.934 286.826 418.726 285.797 419.123 284.597C419.364 283.852 419.463 283.069 419.417 282.288C419.392 281.416 419.169 280.562 418.766 279.789C418.297 278.909 417.6 278.172 416.749 277.653C415.898 277.134 414.923 276.853 413.926 276.839H406.85H390.63C389.26 276.841 387.941 277.358 386.934 278.288C385.952 279.182 385.325 280.401 385.17 281.721C385.011 282.996 385.246 284.289 385.842 285.427C386.451 286.495 387.396 287.333 388.53 287.81C389.653 288.195 390.843 288.342 392.026 288.24H395.459H401.632L410.567 288.324L412.992 288.377C413.277 288.371 413.561 288.392 413.842 288.44C413.56 288.473 413.276 288.491 412.992 288.492H410.567L401.632 288.576H395.459H392.026C391.428 288.576 390.85 288.576 390.21 288.576C389.567 288.537 388.936 288.392 388.341 288.146C387.096 287.635 386.058 286.722 385.391 285.553C384.725 284.325 384.464 282.917 384.645 281.532C384.81 280.059 385.511 278.698 386.615 277.709C387.719 276.719 389.148 276.171 390.63 276.167H406.85H413.937C415.008 276.19 416.053 276.501 416.963 277.068C417.872 277.635 418.611 278.438 419.102 279.39C419.522 280.217 419.749 281.129 419.763 282.057C419.797 282.876 419.68 283.695 419.417 284.471C418.973 285.719 418.118 286.778 416.992 287.474C416.297 287.916 415.511 288.192 414.692 288.282C414.42 288.396 414.134 288.477 413.842 288.524Z" fill="#263238"/>
<path d="M569.222 288.524C569.222 288.524 569.516 288.524 570.051 288.398C570.839 288.258 571.589 287.958 572.256 287.516C573.314 286.826 574.106 285.797 574.503 284.597C574.743 283.852 574.843 283.069 574.797 282.288C574.772 281.416 574.549 280.562 574.146 279.789C573.676 278.909 572.98 278.172 572.129 277.653C571.277 277.134 570.303 276.853 569.306 276.839H562.23H546.009C544.639 276.841 543.32 277.358 542.314 278.288C541.331 279.182 540.705 280.401 540.55 281.721C540.391 282.996 540.625 284.289 541.222 285.427C541.831 286.495 542.776 287.333 543.91 287.81C545.032 288.195 546.223 288.342 547.406 288.24H550.839H557.012L565.946 288.324L568.371 288.377C568.656 288.371 568.941 288.392 569.222 288.44C568.939 288.473 568.656 288.491 568.371 288.492H565.946L557.012 288.576H550.839H547.406C546.807 288.576 546.23 288.576 545.589 288.576C544.947 288.537 544.315 288.392 543.721 288.146C542.476 287.635 541.437 286.722 540.77 285.553C540.104 284.325 539.843 282.917 540.025 281.532C540.19 280.059 540.891 278.698 541.995 277.709C543.098 276.719 544.527 276.171 546.009 276.167H562.23H569.316C570.388 276.19 571.433 276.501 572.342 277.068C573.251 277.635 573.99 278.438 574.482 279.39C574.902 280.217 575.128 281.129 575.143 282.057C575.177 282.876 575.06 283.695 574.797 284.471C574.353 285.719 573.497 286.778 572.371 287.474C571.677 287.916 570.89 288.192 570.072 288.282C569.799 288.396 569.514 288.477 569.222 288.524Z" fill="#263238"/>
<path d="M705.378 263.18H674.302C672.213 263.18 670.164 263.749 668.375 264.828C666.586 265.907 665.125 267.453 664.15 269.301C663.349 270.83 662.903 272.519 662.845 274.244C662.787 275.969 663.118 277.685 663.814 279.264L675.993 306.949L707.111 306.644C707.111 306.644 713.735 271.548 705.378 263.18Z" fill="#EDEDED"/>
<path d="M273.791 259.264L434.136 256.304L538.492 254.393L572.907 234.519C573.561 234.138 574.127 233.622 574.567 233.006C575.007 232.39 575.311 231.687 575.459 230.945C575.607 230.202 575.595 229.437 575.425 228.699C575.255 227.962 574.93 227.269 574.471 226.666L553.044 198.519C551.943 197.07 550.524 195.892 548.897 195.077C547.27 194.262 545.478 193.83 543.658 193.816L426.934 192.871C426.934 192.871 382.987 190.309 348.352 209.669C311.932 230.11 273.791 259.264 273.791 259.264Z" fill="#263238"/>
<path d="M347.27 195.779C347.27 195.779 355.312 199.443 350.084 202.834C344.856 206.225 263.617 257.427 263.617 257.427L244.94 248.976C278.021 230.571 311.428 212.671 347.27 195.779Z" fill="#455A64"/>
<path d="M266.242 258.729L265.738 258.855L264.258 259.18L258.557 260.356C253.602 261.343 246.421 262.729 237.56 264.262C219.712 267.327 195.019 270.897 167.544 273.269C160.668 273.868 153.896 274.319 147.471 274.781C141.046 275.243 134.726 275.611 128.783 276.146C116.889 277.196 106.243 278.918 97.592 281.49C90.716 283.402 84.0986 286.145 77.8861 289.658C75.6499 290.834 74.0541 291.988 72.9308 292.681L71.6499 293.49L71.1985 293.752C71.3332 293.644 71.4734 293.542 71.6184 293.448L72.8678 292.587C73.9806 291.862 75.5554 290.676 77.7811 289.437C83.9559 285.828 90.5585 283.007 97.4346 281.038C106.106 278.403 116.784 276.629 128.689 275.569C134.642 275.002 140.899 274.603 147.387 274.172C153.875 273.742 160.584 273.238 167.45 272.639C194.914 270.267 219.639 266.76 237.455 263.789C246.368 262.309 253.549 260.986 258.515 260.062L264.237 259.012L265.728 258.739L266.242 258.729Z" fill="#263238"/>
<path d="M717.798 330.529C717.798 330.686 707.111 330.802 693.935 330.802C680.759 330.802 670.061 330.686 670.061 330.529C670.061 330.371 680.749 330.256 693.935 330.256C707.121 330.256 717.798 330.382 717.798 330.529Z" fill="#263238"/>
<path d="M522.282 357.804C522.282 357.962 461.957 358.077 387.554 358.077C313.15 358.077 252.814 357.962 252.814 357.804C252.814 357.647 313.129 357.531 387.554 357.531C461.978 357.531 522.282 357.657 522.282 357.804Z" fill="#263238"/>
<path d="M99.9333 331.432C99.9333 331.589 91.3979 331.705 80.8783 331.705C70.3586 331.705 61.8232 331.589 61.8232 331.432C61.8232 331.274 70.3586 331.159 80.8783 331.159C91.3979 331.159 99.9333 331.285 99.9333 331.432Z" fill="#263238"/>
<path d="M654.544 214.288C654.544 214.288 647.384 222.299 650.198 228.178C653.011 234.057 682.103 254.655 682.103 254.655L703.216 258.613L654.544 214.288Z" fill="#455A64"/>
<path d="M453.81 199.936L449.065 251.212L534.02 248.787L568.256 228.881L546.093 199.936H453.81Z" fill="#455A64"/>
<path d="M293.906 253.836C293.906 253.836 345.16 216.818 365.38 209.459C384.897 202.362 395.071 200.577 413.401 200.01C430.923 199.506 441.6 200.01 441.6 200.01L428.057 252.136L293.906 253.836Z" fill="#455A64"/>
<path d="M286.41 253.962C286.411 252.368 286.835 250.803 287.639 249.427C288.444 248.051 289.599 246.913 290.987 246.13L302.767 239.516C306.122 237.627 309.908 236.637 313.759 236.64C316.13 236.643 318.486 237.018 320.74 237.753C323.195 238.602 325.332 240.179 326.866 242.274C328.401 244.37 329.26 246.883 329.328 249.48C329.395 251.223 329.108 252.962 328.487 254.593C327.865 256.223 326.92 257.712 325.71 258.968C324.499 260.225 323.047 261.225 321.441 261.907C319.835 262.589 318.108 262.94 316.362 262.939H295.365C292.988 262.933 290.71 261.985 289.032 260.302C287.353 258.619 286.41 256.339 286.41 253.962Z" fill="#1D366D"/>
<path d="M286.41 253.962C286.41 253.962 286.41 254.361 286.546 255.096C286.705 256.177 287.061 257.22 287.596 258.172C288.445 259.672 289.696 260.905 291.208 261.731C292.151 262.225 293.175 262.545 294.231 262.676C295.437 262.765 296.646 262.79 297.853 262.75L315.817 262.687C317.519 262.732 319.215 262.454 320.814 261.868C322.501 261.237 324.036 260.256 325.317 258.989C326.598 257.722 327.597 256.199 328.247 254.519C328.908 252.746 329.177 250.851 329.034 248.965C328.894 247.106 328.346 245.3 327.43 243.677C326.513 242.053 325.251 240.65 323.733 239.569C322.266 238.555 320.614 237.842 318.872 237.469C314.084 236.337 309.056 236.82 304.573 238.844C303.218 239.453 301.979 240.22 300.751 240.881L297.244 242.834L291.208 246.172C289.689 246.99 288.436 248.225 287.596 249.731C287.067 250.686 286.711 251.728 286.546 252.808C286.441 253.542 286.452 253.941 286.42 253.941C286.381 253.557 286.381 253.17 286.42 252.787C286.538 251.685 286.866 250.616 287.386 249.637C288.212 248.069 289.478 246.777 291.029 245.92L297.024 242.508L300.51 240.524C301.727 239.852 302.966 239.075 304.352 238.424C308.92 236.321 314.06 235.804 318.956 236.955C320.761 237.313 322.478 238.027 324.005 239.054C325.593 240.179 326.913 241.64 327.871 243.333C328.829 245.026 329.402 246.91 329.549 248.85C329.702 250.818 329.423 252.796 328.73 254.645C328.052 256.4 327.009 257.991 325.67 259.312C324.33 260.634 322.725 261.655 320.961 262.309C319.303 262.906 317.547 263.187 315.785 263.138L297.822 263.086C296.599 263.112 295.376 263.073 294.158 262.97C293.052 262.817 291.985 262.461 291.008 261.92C289.461 261.055 288.194 259.766 287.355 258.204C286.842 257.223 286.518 256.155 286.399 255.054C286.374 254.691 286.377 254.325 286.41 253.962Z" fill="#263238"/>
<path d="M681.284 390.78C681.284 390.78 681.284 390.539 681.284 390.056C681.284 389.573 681.368 388.849 681.431 387.956C681.494 387.064 681.599 385.857 681.662 384.492C681.725 383.127 681.767 381.531 681.819 379.757C681.872 377.983 681.819 375.988 681.819 373.825C681.819 371.662 681.662 369.3 681.368 366.781C680.891 361.07 679.875 355.418 678.334 349.899C677.426 346.679 676.307 343.523 674.985 340.45C673.581 337.13 671.887 333.94 669.924 330.917C665.549 324.253 659.983 318.451 653.505 313.805C646.374 308.627 638.414 304.701 629.967 302.193C621.211 299.516 611.678 298.54 601.977 298.466C592.515 298.379 583.096 299.75 574.051 302.529C569.769 303.882 565.61 305.6 561.621 307.663C557.818 309.684 554.205 312.045 550.828 314.718C544.55 319.635 538.957 325.369 534.198 331.768C532.106 334.704 530.259 337.808 528.676 341.049C527.233 344.052 525.957 347.132 524.854 350.277C521.5 359.753 519.458 369.643 518.786 379.673C518.618 383.232 518.639 385.972 518.734 387.883C518.786 388.807 518.828 389.51 518.849 389.983C518.87 390.455 518.849 390.707 518.849 390.707C518.849 390.707 518.849 390.466 518.765 389.983C518.681 389.5 518.66 388.775 518.587 387.883C518.448 385.144 518.448 382.401 518.587 379.662C519.167 369.577 521.157 359.622 524.498 350.088C525.6 346.93 526.869 343.832 528.298 340.807C529.894 337.543 531.748 334.412 533.841 331.442C538.616 325.002 544.226 319.226 550.524 314.267C553.921 311.573 557.554 309.191 561.379 307.148C565.395 305.069 569.582 303.337 573.894 301.973C582.99 299.161 592.467 297.776 601.988 297.868C611.731 297.941 621.305 298.918 630.135 301.626C638.638 304.157 646.648 308.12 653.82 313.343C657.141 315.787 660.246 318.513 663.1 321.49C665.812 324.282 668.229 327.346 670.313 330.634C672.282 333.685 673.979 336.903 675.384 340.251C676.703 343.322 677.815 346.479 678.712 349.699C680.244 355.246 681.239 360.928 681.683 366.665C681.966 369.185 681.966 371.547 682.082 373.72C682.197 375.893 682.082 377.92 682.082 379.662C682.082 381.405 681.924 383.032 681.861 384.408C681.798 385.783 681.662 386.927 681.578 387.872C681.494 388.817 681.431 389.5 681.389 389.972C681.347 390.445 681.284 390.78 681.284 390.78Z" fill="white"/>
<path d="M425.811 259.264H425.569H424.855L422.115 259.327L412.047 259.506C403.543 259.663 391.806 259.978 378.829 260.335C365.853 260.692 354.105 260.933 345.601 260.996C341.349 260.996 337.906 260.996 335.522 260.996H332.782H332.079C331.996 261.012 331.91 261.012 331.827 260.996C331.91 260.983 331.995 260.983 332.079 260.996H332.782L335.522 260.934L345.591 260.755C354.094 260.598 365.842 260.283 378.819 259.936C391.795 259.59 403.543 259.327 412.047 259.264C416.246 259.264 419.742 259.264 422.115 259.264H424.855H425.569H425.811Z" fill="white"/>
<path d="M411.889 275.044C408.832 275.32 405.761 275.411 402.693 275.317C399.624 275.411 396.553 275.32 393.496 275.044C396.553 274.773 399.624 274.682 402.693 274.771C405.761 274.682 408.832 274.773 411.889 275.044Z" fill="white"/>
<path d="M415.27 218.865C415.322 219.002 403.91 223.758 389.769 229.48C375.627 235.201 364.121 239.737 364.058 239.59C363.995 239.443 375.417 234.697 389.559 228.976C403.7 223.254 415.207 218.729 415.27 218.865Z" fill="white"/>
<path d="M392.131 222.467C392.194 222.614 381.318 227.401 367.848 233.165C354.378 238.928 343.418 243.495 343.355 243.359C343.292 243.222 354.168 238.435 367.638 232.661C381.108 226.886 392.068 222.309 392.131 222.467Z" fill="white"/>
<path d="M538.86 216.881C538.923 217.018 527.5 221.774 513.359 227.495C499.217 233.217 487.71 237.742 487.647 237.606C487.584 237.469 499.007 232.713 513.159 226.991C527.311 221.27 538.776 216.734 538.86 216.881Z" fill="white"/>
<path d="M515.679 220.461C515.742 220.608 504.865 225.396 491.406 231.159C477.947 236.923 466.965 241.49 466.902 241.354C466.839 241.217 477.716 236.43 491.185 230.655C504.655 224.881 515.679 220.367 515.679 220.461Z" fill="white"/>
<path d="M541.096 259.212C541.096 259.359 518.387 259.621 490.377 259.789C462.367 259.957 439.658 259.968 439.658 259.789C439.658 259.611 462.356 259.38 490.377 259.222C518.398 259.065 541.096 259.096 541.096 259.212Z" fill="white"/>
<path d="M566.24 274.172C566.24 274.319 559.878 274.498 552.014 274.571C544.151 274.645 537.789 274.571 537.789 274.435C537.789 274.298 544.151 274.099 552.014 274.025C559.878 273.952 566.24 274.015 566.24 274.172Z" fill="white"/>
<path d="M131.429 266.403C131.229 266.471 131.021 266.513 130.81 266.529L129.035 266.76C128.259 266.844 127.314 266.96 126.222 267.149C125.13 267.338 123.881 267.474 122.516 267.747C119.776 268.23 116.532 268.944 112.983 269.847C109.139 270.907 105.351 272.162 101.634 273.605C97.6866 275.17 94.0225 276.881 90.747 278.571C87.4714 280.261 84.6368 281.962 82.3481 283.485C81.1617 284.209 80.1329 284.944 79.1985 285.584C78.2641 286.225 77.4977 286.75 76.8678 287.212L75.4085 288.261C75.2413 288.391 75.062 288.503 74.873 288.597C75.0122 288.442 75.167 288.301 75.335 288.177L76.7418 287.054C77.3507 286.571 78.1066 286.004 79.02 285.343C79.9334 284.681 80.9308 283.946 82.1696 283.243C84.4793 281.679 87.3349 279.967 90.5685 278.214C97.6476 274.43 105.146 271.488 112.91 269.448C116.479 268.524 119.744 267.842 122.505 267.411C123.881 267.159 125.13 267.033 126.232 266.886C127.335 266.739 128.332 266.645 129.056 266.592L130.852 266.456C131.043 266.425 131.236 266.407 131.429 266.403Z" fill="white"/>
<path d="M318.914 241.637C318.914 241.637 318.609 241.228 317.864 240.661C316.857 239.89 315.659 239.407 314.399 239.264C312.509 239.107 310.607 239.31 308.793 239.863C302.4 241.473 296.463 244.529 291.439 248.797C288.94 250.897 287.617 252.44 287.544 252.367C287.798 251.966 288.093 251.593 288.426 251.254C289.294 250.289 290.212 249.371 291.176 248.503C294.383 245.646 298.027 243.321 301.969 241.616C304.133 240.669 306.378 239.92 308.677 239.38C310.551 238.835 312.512 238.664 314.452 238.876C315.769 239.056 317.004 239.623 318 240.503C318.265 240.741 318.501 241.008 318.704 241.301C318.872 241.511 318.935 241.627 318.914 241.637Z" fill="white"/>
<path d="M656.927 213.91C655.464 214.264 653.96 214.419 652.455 214.372C650.689 214.319 648.931 214.101 647.206 213.721C644.928 213.186 642.693 212.484 640.518 211.621C638.093 210.708 635.51 209.522 632.717 208.356L628.361 206.603C626.859 206.005 625.274 205.49 623.678 204.902C616.67 202.529 609.525 200.583 602.282 199.076C589.113 196.334 575.742 194.677 562.303 194.12C559.72 193.984 557.39 193.984 555.332 193.931H550.083L546.765 194.005H545.6C545.697 193.986 545.797 193.986 545.894 194.005L546.755 193.942L550.083 193.763L555.332 193.669C557.432 193.669 559.72 193.669 562.303 193.795C575.779 194.235 589.192 195.851 602.387 198.624C609.646 200.115 616.803 202.065 623.815 204.461C625.41 205.049 626.964 205.574 628.507 206.183L632.864 207.978C635.657 209.186 638.229 210.362 640.633 211.296C642.779 212.161 644.986 212.863 647.237 213.396C648.939 213.803 650.675 214.049 652.423 214.131C653.527 214.169 654.632 214.13 655.73 214.015L656.581 213.91H656.927Z" fill="#263238"/>
<path d="M151.807 215.359C147.607 192.388 144.783 188.86 142.411 180.955C140.038 173.05 136.269 167.916 131.576 166.099C128.427 164.882 112.605 159.181 107.104 161.071C101.721 162.984 96.5974 165.559 91.8493 168.735C88.1645 171.179 85.3721 174.752 83.8913 178.918L75.4924 202.614L90.2745 217.312L97.6865 201.564L105.728 220.461L104.542 239.516L150.663 251.926C154.82 245.207 154.19 228.388 151.807 215.359Z" fill="#1D366D"/>
<g opacity="0.2">
<path opacity="0.2" d="M139.828 190.299C137.791 202.257 137.466 203.947 135.429 215.863C134.725 219.968 132.678 226.362 129.76 229.343C127.597 231.537 125.476 233.648 122.463 234.361C119.67 235.023 115.419 235.096 112.794 233.942C110.169 232.787 107.922 227.642 109.004 225.007C112.92 225.847 114.127 227.107 117.497 225.007C120.437 223.138 124.615 219.002 126.211 215.905C132.941 202.887 134.799 202.425 139.859 190.299" fill="black"/>
</g>
<path d="M106.411 213.469C105.665 212.464 104.985 211.412 104.374 210.32L99.6288 202.519L94.7574 194.845C94.0312 193.812 93.3753 192.732 92.7942 191.611C93.0468 191.841 93.2691 192.102 93.4556 192.388C93.8546 192.902 94.411 193.669 95.0724 194.624C96.4162 196.535 98.222 199.212 100.091 202.225C101.959 205.238 103.587 208.031 104.71 210.078C105.277 211.128 105.76 211.926 106.012 212.514C106.194 212.81 106.329 213.132 106.411 213.469Z" fill="#263238"/>
<path d="M138.599 234.918C138.265 235.092 137.913 235.229 137.55 235.327C137.119 235.471 136.681 235.59 136.237 235.684C135.657 235.842 135.068 235.964 134.473 236.052C132.934 236.326 131.375 236.47 129.812 236.482C127.894 236.485 125.979 236.32 124.09 235.989C122.203 235.633 120.351 235.11 118.558 234.424C117.106 233.858 115.702 233.177 114.358 232.388C113.77 232.062 113.308 231.705 112.846 231.422C112.464 231.173 112.096 230.903 111.744 230.613C111.424 230.394 111.131 230.136 110.873 229.847C110.936 229.763 112.237 230.781 114.547 232.052C115.901 232.782 117.304 233.417 118.747 233.952C122.291 235.273 126.04 235.959 129.823 235.978C131.364 235.98 132.904 235.878 134.431 235.674C136.993 235.306 138.568 234.813 138.599 234.918Z" fill="#263238"/>
<path d="M120.09 199.128C120.006 199.538 115.051 209.406 115.051 209.406L91.6602 197.081L89.277 187.002C88.8837 185.384 87.8654 183.987 86.4449 183.117C85.0244 182.248 83.3173 181.976 81.697 182.362L74.7994 185.186C74.5149 185.297 74.2625 185.477 74.0646 185.71C73.8667 185.942 73.7296 186.221 73.6655 186.519C73.5711 187.023 73.6655 187.569 74.5789 187.454C76.2902 187.317 79.8282 186.939 79.8282 186.939L78.201 192.682C77.7714 194.187 77.9368 195.799 78.6629 197.186L79.7127 199.17L81.991 202.855H81.9385C81.9385 202.855 104.678 226.215 117.445 227.737C125.119 228.65 133.812 207.139 133.812 207.139L120.09 199.128Z" fill="#B78876"/>
<path d="M79.6602 187.328C79.6602 187.328 79.8386 187.086 80.2271 186.824C80.7473 186.461 81.3675 186.271 82.0013 186.278C82.3323 186.296 82.6521 186.404 82.9273 186.588C83.2026 186.773 83.423 187.028 83.5656 187.328C83.7861 187.8 83.6391 188.115 83.5656 188.094C83.4922 188.073 83.5656 187.8 83.3137 187.443C83.1588 187.216 82.9546 187.028 82.7164 186.891C82.4782 186.755 82.2122 186.674 81.9384 186.656C81.3702 186.664 80.8122 186.808 80.3111 187.076C79.9856 187.233 79.6917 187.37 79.6602 187.328Z" fill="#AA6550"/>
<path d="M82.6104 190.908C82.6104 190.908 82.4529 190.719 82.2325 190.435C81.9507 190.074 81.577 189.794 81.1505 189.626C80.7239 189.458 80.26 189.407 79.8073 189.48C79.4503 189.48 79.2299 189.606 79.2089 189.564C79.1879 189.522 79.3768 189.364 79.7548 189.238C80.2543 189.093 80.7881 189.116 81.2725 189.306C81.757 189.496 82.1647 189.842 82.4319 190.288C82.6209 190.645 82.6419 190.897 82.6104 190.908Z" fill="#AA6550"/>
<path d="M124.941 167.979L118.642 197.994L135.439 208.083L141.886 189.637C141.886 189.637 139.177 167.233 124.941 167.979Z" fill="#1D366D"/>
<path d="M133.991 168.504C133.991 168.504 133.854 168.619 133.56 168.777C133.266 168.934 132.846 169.165 132.29 169.448C131.177 170.015 129.539 170.813 127.492 171.727C122.17 174.16 116.566 175.923 110.81 176.976C105.017 178.011 99.0709 177.811 93.361 176.388C91.652 175.939 89.9866 175.338 88.3846 174.593C87.8072 174.351 87.3347 174.089 87.0933 173.942C86.9426 173.867 86.7987 173.779 86.6628 173.679C87.2777 173.887 87.8805 174.129 88.4686 174.404C90.1003 175.063 91.7774 175.603 93.4869 176.021C99.1537 177.318 105.024 177.461 110.747 176.441C116.465 175.388 122.044 173.687 127.377 171.37C129.476 170.509 131.083 169.763 132.227 169.27C132.797 168.976 133.386 168.72 133.991 168.504Z" fill="#D9D9D9"/>
<path d="M138.41 171.821C138.267 171.951 138.108 172.064 137.938 172.157L136.552 173.049C135.82 173.529 135.063 173.971 134.285 174.372C133.382 174.845 132.374 175.422 131.187 175.947L129.361 176.787C128.72 177.081 128.027 177.322 127.324 177.606C125.928 178.183 124.374 178.656 122.757 179.181C115.668 181.319 108.259 182.196 100.867 181.774C99.1666 181.637 97.5498 181.543 96.059 181.301C95.3031 181.186 94.5787 181.112 93.8858 180.986L91.9016 180.588C90.6417 180.367 89.5184 180.031 88.5315 179.779C87.6828 179.574 86.8453 179.325 86.0223 179.034L84.458 178.488C84.2707 178.438 84.0907 178.364 83.9226 178.267C84.1162 178.278 84.3072 178.317 84.4895 178.383L86.0853 178.824C86.7677 179.034 87.6076 179.275 88.605 179.485C89.6024 179.695 90.7047 180.021 91.9856 180.21L93.9593 180.567C94.6417 180.692 95.3661 180.755 96.059 180.85C97.5498 181.07 99.2086 181.154 100.836 181.27C108.173 181.643 115.521 180.773 122.568 178.698C124.174 178.194 125.718 177.742 127.114 177.175C127.807 176.902 128.5 176.672 129.14 176.399L130.977 175.59C132.164 175.107 133.172 174.54 134.127 174.099C135.082 173.658 135.817 173.228 136.426 172.871L137.875 172.073C138.041 171.966 138.222 171.881 138.41 171.821Z" fill="#D9D9D9"/>
<path d="M135.397 208.083C134.927 207.885 134.471 207.653 134.033 207.39L130.337 205.291L117.739 198.015L117.581 197.921V197.742C118.033 195.506 118.516 193.091 119.02 190.614C119.776 186.876 120.51 183.328 121.119 180.115C121.466 178.498 121.749 176.965 122.064 175.506C122.349 174.157 122.8 172.849 123.408 171.611C124.288 169.773 125.846 168.347 127.754 167.632C128.271 167.454 128.814 167.366 129.361 167.37C129.549 167.357 129.737 167.378 129.917 167.433C129.201 167.457 128.493 167.591 127.817 167.832C126.014 168.592 124.561 170.001 123.744 171.779C123.176 173.002 122.757 174.289 122.495 175.611C122.211 177.049 121.917 178.593 121.602 180.199C120.951 183.454 120.237 187.002 119.503 190.698C118.999 193.186 118.505 195.59 118.054 197.826L117.928 197.553L130.453 204.997L134.075 207.202C134.539 207.458 134.982 207.753 135.397 208.083Z" fill="#263238"/>
<path d="M140.531 188.745C140.624 189.679 140.596 190.621 140.447 191.548C140.227 193.792 139.827 196.014 139.25 198.194C138.674 200.376 137.93 202.51 137.025 204.577C136.696 205.456 136.255 206.289 135.712 207.055C135.969 206.158 136.289 205.281 136.668 204.43C138.261 200.253 139.402 195.916 140.069 191.496C140.165 190.57 140.319 189.651 140.531 188.745Z" fill="#263238"/>
<path d="M49.4555 355.705L49.2665 371.726C49.2665 371.726 32.9097 376.922 32.5947 379.883L63.6497 381.353L64.9725 356.398L49.4555 355.705Z" fill="#455A64"/>
<path d="M58.9882 370.833C59.2829 370.938 59.5284 371.149 59.6776 371.424C59.8267 371.699 59.8691 372.019 59.7966 372.324C59.704 372.623 59.4996 372.875 59.2258 373.028C58.9521 373.181 58.6301 373.222 58.3268 373.143C58.0155 373.028 57.7571 372.804 57.6003 372.512C57.4436 372.22 57.3995 371.88 57.4764 371.558C57.6083 371.257 57.8514 371.019 58.1547 370.894C58.4581 370.769 58.7981 370.766 59.1037 370.886" fill="#595959"/>
<path d="M63.6498 381.353V378.833L33.8547 378.361C33.8547 378.361 32.4374 378.896 32.5528 379.883L63.6498 381.353Z" fill="#595959"/>
<path d="M48.7733 371.547C48.7733 371.694 49.5292 371.799 50.2431 372.324C50.957 372.849 51.293 373.5 51.4819 373.447C51.6709 373.395 51.4819 372.513 50.5476 371.893C49.6132 371.274 48.7418 371.4 48.7733 371.547Z" fill="#263238"/>
<path d="M45.4453 372.733C45.4453 372.88 46.0542 373.174 46.4952 373.836C46.9361 374.497 47.0936 375.19 47.2511 375.19C47.4086 375.19 47.5345 374.34 46.9151 373.521C46.2957 372.702 45.4558 372.597 45.4453 372.733Z" fill="#263238"/>
<path d="M43.4084 376.544C43.5449 376.544 43.7969 375.841 43.4084 374.991C43.02 374.14 42.3585 373.783 42.2956 373.941C42.2326 374.098 42.642 374.529 42.915 375.232C43.1879 375.935 43.2404 376.523 43.4084 376.544Z" fill="#263238"/>
<path d="M49.214 367.893C49.277 368.04 49.9804 367.893 50.8413 367.956C51.7021 368.019 52.3426 368.366 52.4265 368.24C52.5105 368.114 51.9016 367.537 50.8937 367.432C49.8859 367.327 49.151 367.778 49.214 367.893Z" fill="#263238"/>
<g opacity="0.3">
<path opacity="0.3" d="M49.4241 358.875L49.3821 361.731L64.6576 362.319L64.7941 359.747L49.4241 358.875Z" fill="black"/>
</g>
<path d="M49.3191 364.66C49.8204 364.827 50.358 364.852 50.8729 364.733C51.4383 364.66 51.9922 364.516 52.5212 364.303C52.8372 364.186 53.1428 364.042 53.4346 363.873C53.616 363.788 53.7826 363.674 53.928 363.537C54.0333 363.433 54.1008 363.297 54.1198 363.15C54.1389 363.004 54.1083 362.855 54.033 362.728C53.9608 362.619 53.8645 362.529 53.7516 362.463C53.6387 362.398 53.5123 362.359 53.3821 362.35C53.1846 362.34 52.9867 362.358 52.7941 362.403C52.4607 362.467 52.1339 362.562 51.8178 362.686C51.2834 362.901 50.7844 363.195 50.3375 363.558C49.5816 364.198 49.2876 364.754 49.3611 364.786C49.4346 364.817 49.802 364.376 50.5579 363.862C51.0025 363.566 51.4821 363.326 51.9857 363.148C52.2802 363.048 52.5821 362.971 52.8886 362.917C53.2246 362.844 53.508 362.854 53.5815 363.001C53.655 363.148 53.5815 363.085 53.5815 363.18C53.4728 363.277 53.353 363.362 53.2246 363.432C52.9411 363.589 52.6577 363.736 52.3847 363.862C51.89 364.076 51.377 364.245 50.8519 364.366C50.3351 364.431 49.8231 364.529 49.3191 364.66Z" fill="#263238"/>
<path d="M49.5397 364.891C49.8519 364.461 50.0175 363.942 50.0122 363.411C50.0704 362.837 50.0278 362.258 49.8862 361.699C49.8016 361.366 49.6819 361.042 49.5292 360.733C49.4554 360.524 49.3286 360.338 49.1611 360.193C48.9936 360.047 48.7913 359.948 48.5739 359.904C48.4367 359.899 48.301 359.934 48.1835 360.005C48.066 360.075 47.9718 360.179 47.9125 360.303C47.8198 360.481 47.756 360.672 47.7235 360.87C47.671 361.218 47.671 361.572 47.7235 361.92C47.7809 362.506 47.9829 363.069 48.3114 363.558C48.8783 364.397 49.5083 364.607 49.5187 364.555C49.5292 364.502 49.0568 364.166 48.6264 363.369C48.3801 362.912 48.2368 362.406 48.2064 361.888C48.1895 361.585 48.2142 361.282 48.2799 360.985C48.3429 360.66 48.4794 360.397 48.6054 360.439C48.7313 360.481 49.0043 360.702 49.1198 360.975C49.2621 361.25 49.3781 361.539 49.4663 361.836C49.617 362.344 49.6948 362.87 49.6972 363.4C49.6132 364.303 49.4243 364.859 49.5397 364.891Z" fill="#263238"/>
<path d="M112.762 239.684C112.762 239.684 64.2378 219.317 49.2247 218.467C39.776 217.921 32.6789 223.968 33.9597 233.711C34.6001 238.592 48.0069 295.652 48.0069 295.652L68.4372 286.33L58.6105 246.865L98.5053 266.246L112.762 239.684Z" fill="#263238"/>
<path d="M52.5107 236.881C52.3532 237.018 53.9595 239.086 55.6603 241.826C57.3611 244.566 58.4949 246.928 58.6839 246.855C58.8729 246.781 58.0015 244.251 56.2692 241.459C54.5369 238.666 52.6892 236.755 52.5107 236.881Z" fill="#455A64"/>
<path d="M48.5421 239.149C48.4371 239.327 50.8833 240.881 53.7914 243.002C56.6995 245.123 58.8832 246.981 59.0407 246.834C59.1982 246.687 57.0985 244.514 54.1798 242.414C51.2612 240.314 48.6261 238.981 48.5421 239.149Z" fill="#455A64"/>
<path d="M150.61 251.926C150.61 251.926 144.51 259.789 138.694 261.941C131.345 264.64 77.3191 290.141 77.3191 290.141C77.3191 290.141 67.5134 362.991 68.2903 359.946L45.6658 359.4L48.1225 292.303C48.4164 283.715 55.3035 273.847 62.705 269.458L112.762 239.684L150.61 251.926Z" fill="#263238"/>
<path d="M47.6918 304.587C47.7636 304.284 47.7954 303.974 47.7863 303.663C47.7863 302.991 47.8703 302.12 47.9228 301.028C48.0513 297.798 48.3527 294.577 48.8257 291.38C49.4884 286.654 51.1645 282.127 53.739 278.109C55.3321 275.799 57.2976 273.77 59.5553 272.104C62.0053 270.319 64.5688 268.695 67.2298 267.243C78.1168 261.007 87.5131 254.645 94.4632 250.288C97.9277 248.083 100.762 246.33 102.694 245.133L104.941 243.747C105.213 243.597 105.469 243.421 105.707 243.222C105.418 243.327 105.14 243.461 104.878 243.621C104.342 243.905 103.555 244.325 102.558 244.892C100.552 246.015 97.6968 247.716 94.1587 249.857C87.1351 254.12 77.6864 260.409 66.8623 266.655C64.1741 268.124 61.5858 269.769 59.1143 271.579C56.8001 273.296 54.7913 275.39 53.1721 277.773C50.5823 281.896 48.93 286.537 48.3322 291.369C47.8998 294.588 47.6754 297.832 47.6603 301.08C47.6603 302.13 47.6603 303.043 47.6603 303.726C47.6451 304.013 47.6556 304.301 47.6918 304.587Z" fill="#455A64"/>
<path d="M130.641 259.6C130.222 258.95 129.759 258.329 129.256 257.742C128.213 256.225 127.489 254.513 127.128 252.708C126.767 250.903 126.777 249.044 127.156 247.243C127.389 246.504 127.572 245.75 127.702 244.986C127.192 245.594 126.833 246.313 126.652 247.086C126.114 248.95 126.035 250.917 126.421 252.818C126.798 254.72 127.634 256.5 128.857 258.004C129.812 259.212 130.6 259.663 130.641 259.6Z" fill="#455A64"/>
<path d="M53.9804 359.4C54.0175 359.281 54.0387 359.157 54.0434 359.033C54.0434 358.739 54.1274 358.382 54.1799 357.93C54.2954 356.88 54.4424 355.495 54.6314 353.731C54.9988 349.993 55.5237 344.671 56.1747 338.119C56.4791 334.823 56.8256 331.211 57.2245 327.337C57.6235 323.463 57.9909 319.316 58.2744 314.949C58.5578 310.581 59.0198 306.015 59.8177 301.301C60.5969 296.465 62.0088 291.753 64.0171 287.285C66.1144 282.871 68.884 278.808 72.2271 275.243C75.3595 271.927 78.7894 268.904 82.4737 266.214C88.788 261.768 95.3459 257.677 102.117 253.962C107.859 250.666 112.437 247.852 115.471 245.731C117.004 244.682 118.159 243.831 118.935 243.233L119.807 242.55C120.003 242.396 120.097 242.312 120.09 242.298C119.973 242.346 119.864 242.409 119.765 242.487L118.851 243.117C118.054 243.674 116.867 244.493 115.324 245.511C112.237 247.548 107.639 250.288 101.865 253.532C95.0386 257.193 88.434 261.252 82.0853 265.689C78.3519 268.386 74.8792 271.426 71.7126 274.771C68.3099 278.384 65.4937 282.507 63.3662 286.991C61.3494 291.514 59.9374 296.283 59.1668 301.175C58.3794 305.899 57.9804 310.487 57.655 314.823C57.3295 319.159 57.004 323.337 56.6051 327.211C56.2062 331.085 55.9542 334.697 55.6707 338.004C55.1143 344.566 54.6209 349.888 54.3584 353.636C54.2184 355.442 54.1134 356.842 54.0434 357.836C54.0434 358.287 53.9909 358.655 53.9699 358.938C53.9489 359.222 53.9594 359.4 53.9804 359.4Z" fill="#455A64"/>
<path d="M107.282 124.136C106.52 122.174 105.084 120.548 103.231 119.549C101.378 118.551 99.2297 118.245 97.1718 118.688C96.2663 119.019 95.3196 119.224 94.3582 119.297C93.193 119.097 92.0477 118.795 90.9356 118.394C89.6755 118.189 88.3844 118.461 87.3134 119.156C86.2423 119.85 85.4678 120.918 85.1404 122.152C84.1542 121.913 83.1277 121.891 82.1322 122.088C81.1368 122.286 80.1964 122.698 79.3766 123.296C78.5727 123.919 78.0019 124.794 77.7562 125.781C77.5105 126.767 77.6042 127.808 78.0223 128.735C78.4317 129.501 79.0722 130.11 79.4816 130.898C80.101 132.189 79.8176 133.743 80.248 135.097C80.652 136.082 81.3252 136.933 82.1904 137.553C83.0556 138.173 84.0779 138.537 85.1404 138.603C87.2779 138.713 89.4166 138.41 91.4396 137.711" fill="#263238"/>
<path d="M97.5079 165.658C97.2455 163.622 97.0775 162.194 97.0775 162.194C97.0775 162.194 90.3059 162.194 87.6287 153.795C86.2744 149.596 85.3715 142.582 84.8256 136.787C84.7062 135.553 84.8381 134.307 85.2132 133.125C85.5884 131.942 86.199 130.848 87.0084 129.909C87.8177 128.969 88.809 128.203 89.9224 127.656C91.0359 127.11 92.2484 126.795 93.487 126.73L111.461 125.795L111.849 128.577L116.584 163.139C116.755 164.392 116.677 165.666 116.354 166.889C116.031 168.112 115.469 169.259 114.701 170.264C113.933 171.269 112.975 172.112 111.88 172.745C110.785 173.378 109.576 173.788 108.322 173.952C107.067 174.12 105.791 174.039 104.567 173.713C103.344 173.387 102.197 172.822 101.192 172.051C100.187 171.281 99.3447 170.319 98.7124 169.222C98.0802 168.125 97.6709 166.914 97.5079 165.658Z" fill="#B78876"/>
<path d="M87.3347 141.732C87.379 142.019 87.5327 142.278 87.7637 142.454C87.9947 142.63 88.285 142.71 88.5736 142.677C88.7164 142.668 88.856 142.63 88.9836 142.565C89.1112 142.5 89.2242 142.41 89.3156 142.3C89.4071 142.19 89.475 142.062 89.5153 141.925C89.5556 141.787 89.5674 141.643 89.55 141.501C89.5108 141.212 89.3583 140.949 89.1261 140.772C88.8938 140.595 88.6007 140.517 88.3111 140.556C88.1682 140.565 88.0287 140.603 87.9011 140.668C87.7735 140.733 87.6605 140.823 87.5691 140.933C87.4776 141.043 87.4097 141.171 87.3694 141.309C87.3291 141.446 87.3173 141.59 87.3347 141.732Z" fill="#263238"/>
<path d="M86.8729 140.178C87.0304 140.294 87.7653 139.548 88.9727 139.359C90.18 139.17 91.0724 139.632 91.2299 139.464C91.3873 139.296 91.1039 139.149 90.6839 138.939C90.1146 138.66 89.4714 138.568 88.8467 138.677C88.2286 138.769 87.6573 139.06 87.2194 139.506C86.8729 139.842 86.7889 140.126 86.8729 140.178Z" fill="#263238"/>
<path d="M98.5891 139.821C98.6333 140.108 98.7874 140.366 99.0188 140.54C99.2501 140.715 99.5404 140.792 99.8279 140.756C99.9707 140.748 100.11 140.711 100.238 140.648C100.367 140.584 100.48 140.495 100.573 140.386C100.665 140.277 100.734 140.15 100.776 140.013C100.817 139.876 100.831 139.732 100.815 139.59C100.771 139.303 100.617 139.044 100.386 138.868C100.155 138.692 99.8645 138.612 99.5759 138.645C99.4322 138.653 99.2915 138.69 99.1626 138.754C99.0338 138.819 98.9196 138.909 98.827 139.019C98.7344 139.129 98.6656 139.257 98.6246 139.395C98.5837 139.533 98.5716 139.678 98.5891 139.821Z" fill="#263238"/>
<path d="M98.5681 138.541C98.7256 138.666 99.4605 137.911 100.668 137.732C101.875 137.554 102.768 137.995 102.925 137.827C103.083 137.659 102.799 137.522 102.379 137.302C101.807 137.032 101.167 136.94 100.542 137.039C99.926 137.139 99.3569 137.429 98.9145 137.869C98.5681 138.205 98.4946 138.478 98.5681 138.541Z" fill="#263238"/>
<path d="M95.6602 148.031C95.0018 147.942 94.3344 147.942 93.676 148.031C93.3715 148.031 93.0776 148.031 92.9936 147.832C92.897 147.528 92.897 147.201 92.9936 146.897C93.1616 146.121 93.34 145.302 93.529 144.451C94.0416 142.364 94.3926 140.241 94.5789 138.1C93.891 140.154 93.3679 142.261 93.0146 144.399C92.8466 145.26 92.6786 146.079 92.5316 146.866C92.385 147.255 92.385 147.684 92.5316 148.073C92.593 148.173 92.6756 148.257 92.7737 148.321C92.8718 148.384 92.9827 148.425 93.0986 148.441C93.2729 148.463 93.4492 148.463 93.6235 148.441C94.317 148.391 95.0014 148.253 95.6602 148.031Z" fill="#263238"/>
<path d="M97.0774 162.194C101.135 161.612 104.951 159.914 108.101 157.291C108.101 157.291 106.232 163.674 97.5078 164.21L97.0774 162.194Z" fill="#AA6550"/>
<path d="M99.282 148.294C99.0825 148.294 99.282 149.596 98.3371 150.687C97.3922 151.779 95.9854 151.853 95.9959 152.031C96.0064 152.21 96.3424 152.241 96.9303 152.157C97.6869 152.055 98.3809 151.682 98.883 151.107C99.3748 150.563 99.6314 149.846 99.5969 149.113C99.5654 148.567 99.366 148.273 99.282 148.294Z" fill="#263238"/>
<path d="M97.5183 133.942C97.6863 134.247 98.8516 133.942 100.269 133.848C101.686 133.753 102.873 133.995 103.009 133.68C103.146 133.365 102.831 133.26 102.327 133.018C101.658 132.727 100.932 132.593 100.204 132.628C99.4753 132.662 98.7648 132.864 98.1272 133.218C97.6653 133.501 97.4448 133.795 97.5183 133.942Z" fill="#263238"/>
<path d="M86.7571 136.672C87.0091 136.903 87.807 136.493 88.7624 136.325C89.7177 136.157 90.6101 136.22 90.7571 135.905C90.8201 135.758 90.6416 135.506 90.2427 135.317C89.7056 135.079 89.1076 135.013 88.5314 135.128C87.9564 135.23 87.4277 135.509 87.0196 135.926C86.7151 136.262 86.6416 136.556 86.7571 136.672Z" fill="#263238"/>
<path d="M83.8804 132.997C83.8804 132.997 88.6363 134.604 94.0956 130.95C97.6756 128.556 102.022 127.055 103.103 127.706C104.185 128.357 104.888 132.262 108.825 132.955C108.825 132.955 109.518 140.514 112.489 139.863C114.589 139.401 113.371 131.065 112.489 126.31C112.305 125.39 111.818 124.559 111.107 123.948C110.395 123.337 109.499 122.982 108.563 122.94L103.03 122.719L96.1218 124.651L88.7098 126.667L83.0615 129.029L83.8804 132.997Z" fill="#263238"/>
<path d="M111.828 136.787C111.933 136.714 116.521 134.299 117.371 139.307C118.222 144.315 113.025 144.126 112.983 143.989C112.941 143.853 111.828 136.787 111.828 136.787Z" fill="#B78876"/>
<path d="M114.19 141.827C114.19 141.827 114.295 141.879 114.453 141.921C114.674 141.974 114.907 141.94 115.104 141.827C115.389 141.566 115.601 141.235 115.719 140.866C115.837 140.498 115.857 140.105 115.775 139.727C115.715 139.296 115.561 138.884 115.324 138.52C115.248 138.372 115.138 138.245 115.003 138.148C114.868 138.051 114.711 137.988 114.547 137.963C114.443 137.954 114.339 137.982 114.253 138.041C114.166 138.1 114.104 138.188 114.075 138.289C114.075 138.436 114.075 138.53 114.075 138.551C114.075 138.572 113.959 138.478 113.959 138.268C113.968 138.139 114.02 138.017 114.106 137.921C114.227 137.794 114.393 137.719 114.568 137.711C114.782 137.715 114.991 137.774 115.175 137.883C115.358 137.991 115.511 138.146 115.618 138.331C115.905 138.727 116.089 139.189 116.153 139.674C116.258 140.116 116.227 140.579 116.066 141.004C115.906 141.429 115.621 141.796 115.251 142.058C115.123 142.118 114.983 142.15 114.841 142.15C114.699 142.15 114.56 142.118 114.432 142.058C114.222 141.953 114.18 141.848 114.19 141.827Z" fill="#AA6550"/>
<path d="M86.2849 120.304C86.2849 120.304 86.4529 120.577 86.8098 120.976C87.3211 121.542 87.9731 121.962 88.6996 122.194C89.7789 122.543 90.9324 122.594 92.0382 122.341C93.4131 122.007 94.7636 121.579 96.0801 121.06C97.4431 120.524 98.8991 120.263 100.364 120.294C101.602 120.339 102.774 120.866 103.629 121.764C104.211 122.349 104.564 123.124 104.626 123.947C104.67 124.246 104.618 124.551 104.479 124.819C104.427 124.819 104.479 124.504 104.416 123.968C104.285 123.225 103.917 122.543 103.366 122.026C102.557 121.251 101.484 120.812 100.364 120.798C98.9656 120.799 97.5803 121.062 96.2796 121.575C94.9412 122.107 93.5612 122.529 92.1536 122.835C90.9653 123.08 89.7316 122.986 88.5946 122.562C87.8227 122.278 87.1511 121.774 86.6629 121.113C86.2849 120.63 86.2849 120.315 86.2849 120.304Z" fill="#455A64"/>
<path d="M103.198 125.102C103.198 125.102 102.946 124.84 102.421 124.472C101.672 124.014 100.811 123.774 99.933 123.779C98.602 123.774 97.29 124.095 96.1115 124.714C94.6386 125.509 93.1167 126.211 91.5551 126.814C90.0734 127.273 88.5131 127.424 86.9708 127.256C85.4286 127.088 83.9372 126.605 82.5893 125.837C81.7738 125.378 81.0279 124.806 80.3741 124.136C80.1195 123.909 79.9064 123.639 79.7441 123.338C80.6737 124.16 81.6871 124.881 82.7677 125.491C85.4225 126.884 88.5196 127.174 91.3871 126.299C92.9266 125.676 94.4334 124.976 95.9015 124.199C97.1546 123.565 98.5513 123.269 99.954 123.338C100.907 123.375 101.825 123.709 102.579 124.294C102.854 124.503 103.068 124.782 103.198 125.102Z" fill="#455A64"/>
<path d="M87.6495 210.414L63.2717 189.637L55.2297 191.454C55.2297 191.454 63.7021 209.07 69.8333 215.527C69.8333 215.527 75.891 223.632 85.8857 220.125C95.8804 216.619 87.6495 210.414 87.6495 210.414Z" fill="#B78876"/>
<path d="M61.424 166.75H51.0619C50.6709 166.772 50.2895 166.88 49.9455 167.067C49.6015 167.254 49.3036 167.515 49.0733 167.832C48.843 168.149 48.6863 168.513 48.6144 168.898C48.5425 169.283 48.5573 169.679 48.6577 170.057L59.0828 190.351C59.2805 190.738 59.5813 191.062 59.9519 191.288C60.3225 191.514 60.7485 191.633 61.1826 191.632H73.7809C74.0771 191.599 74.3605 191.493 74.6058 191.324C74.8512 191.155 75.0508 190.928 75.187 190.663C75.3232 190.397 75.3917 190.103 75.3863 189.805C75.3809 189.507 75.3019 189.215 75.1562 188.955L65.1091 169.081C64.767 168.392 64.2425 167.811 63.5927 167.4C62.9429 166.989 62.1928 166.764 61.424 166.75Z" fill="#455A64"/>
<path d="M60.7312 167.979H50.3691C50.0717 167.977 49.7788 168.052 49.5187 168.196C49.2585 168.34 49.0399 168.548 48.8838 168.802C48.7277 169.055 48.6394 169.344 48.6274 169.641C48.6154 169.938 48.6801 170.233 48.8153 170.498L58.9885 190.351C59.188 190.736 59.4892 191.059 59.8594 191.285C60.2296 191.511 60.6546 191.631 61.0882 191.632H73.5816C73.7531 191.625 73.9202 191.576 74.0684 191.489C74.2165 191.402 74.3411 191.28 74.4312 191.134C74.5214 190.988 74.5743 190.822 74.5854 190.651C74.5965 190.48 74.5655 190.308 74.4949 190.152L64.4373 170.288C64.0974 169.595 63.57 169.011 62.9148 168.603C62.2597 168.195 61.5032 167.978 60.7312 167.979Z" fill="#263238"/>
<path d="M59.8493 176.273L53.5501 178.792L52.2063 183.874L55.2404 191.433L66.3374 193.07L63.0829 189.742L63.4923 186.834C63.4923 186.834 66.6419 185.858 66.6419 185.385C66.6419 184.913 66.2535 183.286 65.781 183.233C64.5381 183.517 63.3199 183.9 62.138 184.378C62.138 184.378 65.991 181.322 65.886 180.829C65.781 180.336 65.3611 179.086 64.5947 178.939C63.8283 178.792 57.5921 181.742 57.5921 181.742L56.5422 184.042L55.6603 180.357C55.6603 180.357 61.2141 178.803 59.8493 176.273Z" fill="#B78876"/>
<path d="M60.6472 188.199C60.6472 188.199 60.4897 187.989 60.4267 187.569C60.3604 187.034 60.4209 186.491 60.6033 185.984C60.7857 185.477 61.0848 185.02 61.4766 184.65C61.7916 184.378 62.033 184.283 62.054 184.315C61.5749 184.845 61.1817 185.447 60.8887 186.099C60.7018 186.783 60.6204 187.491 60.6472 188.199Z" fill="#AA6550"/>
<path d="M57.6445 187.097C57.7675 186.554 57.8517 186.003 57.8965 185.448C57.922 184.828 58.0279 184.214 58.2115 183.622C58.3314 183.241 58.5408 182.895 58.8221 182.611C59.1034 182.328 59.4484 182.117 59.8282 181.994C61.3296 181.448 62.6944 181.007 63.6812 180.682C64.2089 180.483 64.7536 180.331 65.3085 180.231C64.8198 180.509 64.3024 180.735 63.7652 180.902C62.7889 181.28 61.424 181.763 59.9437 182.299C59.598 182.418 59.2826 182.611 59.0198 182.866C58.7867 183.113 58.6079 183.406 58.4949 183.727C58.3027 184.294 58.1793 184.883 58.1275 185.48C58.1071 186.051 57.9409 186.608 57.6445 187.097Z" fill="#AA6550"/>
<path d="M56.1956 185.963C56.0963 185.552 56.0963 185.124 56.1956 184.713C56.3111 184.042 56.4686 183.517 56.5631 183.527C56.6616 183.938 56.6616 184.366 56.5631 184.776C56.4476 185.448 56.2901 185.973 56.1956 185.963Z" fill="#AA6550"/>
<path d="M56.0279 171.811C56.0279 172.072 56.1055 172.328 56.2508 172.546C56.3962 172.763 56.6028 172.933 56.8445 173.033C57.0862 173.133 57.3522 173.159 57.6088 173.108C57.8654 173.057 58.1011 172.931 58.2861 172.746C58.4711 172.561 58.5971 172.325 58.6481 172.069C58.6992 171.812 58.673 171.546 58.5728 171.304C58.4727 171.063 58.3032 170.856 58.0856 170.711C57.8681 170.565 57.6123 170.488 57.3507 170.488C57.1766 170.486 57.0039 170.52 56.8428 170.586C56.6817 170.652 56.5353 170.749 56.4122 170.872C56.2891 170.995 56.1917 171.142 56.1257 171.303C56.0597 171.464 56.0265 171.637 56.0279 171.811Z" fill="#EDEDED"/>
<path d="M19.7236 371.925C21.368 372.435 22.8926 373.271 24.2059 374.384C25.5193 375.497 26.5943 376.864 27.3666 378.403C28.8972 381.494 29.6981 384.895 29.7078 388.345C29.9178 394.98 27.1671 402.119 23.9231 407.925C17.7184 403.935 15.2407 395.694 14.2328 391.494C12.658 384.796 13.8654 371.736 19.7236 371.914" fill="#1D366D"/>
<path d="M31.8916 417.793C31.2448 415.98 31.0887 414.028 31.439 412.134C31.7892 410.241 32.6335 408.474 33.8863 407.011C35.1649 405.573 36.7176 404.404 38.4537 403.572C40.1897 402.741 42.0741 402.265 43.9965 402.171C45.7603 402.046 47.734 402.276 48.9414 403.578C49.472 404.219 49.8218 404.99 49.9547 405.811C50.0876 406.633 49.9987 407.475 49.6973 408.25C49.0697 409.795 48.0447 411.146 46.7262 412.166C42.3902 415.862 37.5189 418.633 31.8916 417.793Z" fill="#1D366D"/>
<path d="M27.7552 438.864C27.7076 438.411 27.7076 437.953 27.7552 437.499C27.7552 436.523 27.8392 435.274 27.8917 433.772C27.9328 429.637 28.6419 425.535 29.9914 421.625C31.4027 417.708 33.8304 414.237 37.0255 411.568C37.9951 410.784 39.052 410.115 40.1751 409.573C40.5741 409.374 40.91 409.279 41.12 409.185C41.33 409.09 41.4559 409.069 41.4664 409.09C38.8763 410.371 36.5662 412.154 34.6703 414.334C32.7743 416.515 31.3303 419.05 30.4219 421.793C29.1081 425.664 28.3758 429.708 28.2487 433.793C28.1437 435.358 28.0492 436.628 27.9652 437.51C27.9327 437.966 27.8624 438.419 27.7552 438.864Z" fill="#263238"/>
<path d="M19.6817 381.951C19.7446 382.14 19.7937 382.333 19.8287 382.529C19.9197 382.963 20.0352 383.519 20.1751 384.198C20.4691 385.647 20.8681 387.757 21.33 390.361C22.2644 395.61 23.4297 402.801 24.5741 410.801C25.7184 418.801 26.5688 426.066 27.1147 431.337C27.3877 433.972 27.5872 436.103 27.7132 437.583C27.7621 438.283 27.8041 438.85 27.8391 439.284C27.8693 439.479 27.8693 439.677 27.8391 439.872C27.7868 439.68 27.7516 439.483 27.7342 439.284C27.6817 438.854 27.6082 438.297 27.5137 437.594C27.3247 436.072 27.0727 433.961 26.7578 431.379C26.1279 426.129 25.2145 418.864 24.0911 410.864C22.9678 402.864 21.8339 395.694 20.994 390.445C20.5741 387.872 20.2381 385.773 19.9442 384.25C19.8392 383.557 19.7552 383.001 19.6817 382.571C19.6543 382.365 19.6543 382.157 19.6817 381.951Z" fill="#263238"/>
<path d="M22.9467 423.158C21.7116 419.299 19.5753 415.789 16.7145 412.919C13.8538 410.049 10.3508 407.902 6.49535 406.654C4.52161 406.035 2.04393 405.814 0.721106 407.4C-0.601721 408.985 0.112185 411.4 1.13055 413.195C3.32101 416.904 6.5613 419.881 10.4423 421.749C14.3233 423.618 18.6709 424.294 22.9362 423.694" fill="#1D366D"/>
<path d="M8.24853 412.723C8.67083 412.797 9.08549 412.909 9.48737 413.059C9.97001 413.201 10.4434 413.372 10.9047 413.573C11.4506 413.814 12.091 414.024 12.7419 414.381C13.4615 414.733 14.1623 415.122 14.8417 415.547C15.6413 416.028 16.4157 416.55 17.1619 417.111C20.5975 419.691 23.351 423.072 25.1828 426.959C25.5808 427.803 25.9313 428.669 26.2327 429.552C26.5087 430.314 26.7366 431.092 26.9151 431.883C27.0782 432.533 27.2044 433.192 27.293 433.856C27.3843 434.353 27.4439 434.854 27.4715 435.358C27.515 435.783 27.522 436.212 27.4925 436.638C27.377 436.638 27.3035 434.801 26.5581 431.956C26.3595 431.185 26.1212 430.425 25.8442 429.678C25.543 428.812 25.1925 427.963 24.7944 427.137C23.8633 425.271 22.7334 423.511 21.4243 421.888C20.078 420.27 18.5648 418.799 16.9099 417.499C16.1849 416.94 15.4315 416.418 14.6527 415.935C13.9752 415.495 13.2743 415.092 12.553 414.728C9.98081 413.332 8.20654 412.817 8.24853 412.723Z" fill="#263238"/>
</svg>
